0
SECTION
2
HEADER
9
$INSUNITS
70
4
9
$ACADVER
1
AC1014
9
$HANDSEED
5
FFFF
0
ENDSEC
0
SECTION
2
TABLES
0
TABLE
2
VPORT
5
8
100
AcDbSymbolTable
0
ENDTAB
0
TABLE
2
LTYPE
5
5
100
AcDbSymbolTable
0
LTYPE
5
14
100
AcDbSymbolTableRecord
100
AcDbLinetypeTableRecord
2
BYBLOCK
70
0
0
LTYPE
5
15
100
AcDbSymbolTableRecord
100
AcDbLinetypeTableRecord
2
BYLAYER
70
0
0
LTYPE
5
16
100
AcDbSymbolTableRecord
100
AcDbLinetypeTableRecord
2
DASHED
70
0
3
Dashed __ __ __ __ __ __ __ __ __ __ __ __ __ _
72
65
73
2
40
0.75
49
0.5
74
0
49
-0.25
74
0
0
ENDTAB
0
TABLE
2
LAYER
5
2
100
AcDbSymbolTable
70
3
0
LAYER
5
50
100
AcDbSymbolTableRecord
100
AcDbLayerTableRecord
2
1
70
0
62
7
6
DASHED
0
LAYER
5
51
100
AcDbSymbolTableRecord
100
AcDbLayerTableRecord
2
0
70
0
62
7
6
CONTINUOUS
0
ENDTAB
0
TABLE
2
STYLE
5
3
100
AcDbSymbolTable
70
1
0
STYLE
5
11
100
AcDbSymbolTableRecord
100
AcDbTextStyleTableRecord
2
STANDARD
70
0
0
ENDTAB
0
TABLE
2
VIEW
5
6
100
AcDbSymbolTable
70
0
0
ENDTAB
0
TABLE
2
UCS
5
7
100
AcDbSymbolTable
70
0
0
ENDTAB
0
TABLE
2
APPID
5
9
100
AcDbSymbolTable
70
2
0
APPID
5
12
100
AcDbSymbolTableRecord
100
AcDbRegAppTableRecord
2
ACAD
70
0
0
ENDTAB
0
TABLE
2
DIMSTYLE
5
A
100
AcDbSymbolTable
70
1
0
ENDTAB
0
TABLE
2
BLOCK_RECORD
5
1
100
AcDbSymbolTable
70
1
0
BLOCK_RECORD
5
1F
100
AcDbSymbolTableRecord
100
AcDbBlockTableRecord
2
*MODEL_SPACE
0
BLOCK_RECORD
5
1B
100
AcDbSymbolTableRecord
100
AcDbBlockTableRecord
2
*PAPER_SPACE
0
ENDTAB
0
ENDSEC
0
SECTION
2
BLOCKS
0
BLOCK
5
20
100
AcDbEntity
100
AcDbBlockBegin
2
*MODEL_SPACE
0
ENDBLK
5
21
100
AcDbEntity
100
AcDbBlockEnd
0
BLOCK
5
1C
100
AcDbEntity
100
AcDbBlockBegin
2
*PAPER_SPACE
0
ENDBLK
5
1D
100
AcDbEntity
100
AcDbBlockEnd
0
ENDSEC
0
SECTION
2
ENTITIES
0
POINT
5
100
100
AcDbEntity
8
0
100
AcDbPoint
10
-1016.5
20
-93.000000000000114
30
0
0
LWPOLYLINE
5
101
100
AcDbEntity
8
0
100
AcDbPolyline
90
12
70
1
43
0.0
10
-523.5
20
-73.500000000000085
10
-523.5
20
-80
10
-517
20
-80
10
-517
20
-93.000000000000114
10
-523.5
20
-93.000000000000114
10
-523.5
20
-99.500000000000028
10
-536.5
20
-99.500000000000028
10
-536.5
20
-93.000000000000114
10
-543
20
-93.000000000000114
10
-543
20
-80
10
-536.5
20
-80
10
-536.5
20
-73.500000000000085
0
LWPOLYLINE
5
102
100
AcDbEntity
8
0
100
AcDbPolyline
90
12
70
1
43
0.0
10
-1083.5
20
-233.50000000000009
10
-1083.5
20
-240
10
-1077
20
-240
10
-1077
20
-253.00000000000011
10
-1083.5
20
-253.00000000000011
10
-1083.5
20
-259.5
10
-1096.5
20
-259.5
10
-1096.5
20
-253.00000000000011
10
-1103
20
-253.00000000000011
10
-1103
20
-240
10
-1096.5
20
-240
10
-1096.5
20
-233.50000000000009
0
LWPOLYLINE
5
103
100
AcDbEntity
8
0
100
AcDbPolyline
90
12
70
1
43
0.0
10
-603.5
20
-233.50000000000009
10
-603.5
20
-240
10
-597
20
-240
10
-597
20
-253.00000000000011
10
-603.5
20
-253.00000000000011
10
-603.5
20
-259.5
10
-616.5
20
-259.5
10
-616.5
20
-253.00000000000011
10
-623
20
-253.00000000000011
10
-623
20
-240
10
-616.5
20
-240
10
-616.5
20
-233.50000000000009
0
LWPOLYLINE
5
104
100
AcDbEntity
8
0
100
AcDbPolyline
90
12
70
1
43
0.0
10
-683.5
20
-233.50000000000009
10
-683.5
20
-240
10
-677
20
-240
10
-677
20
-253.00000000000011
10
-683.5
20
-253.00000000000011
10
-683.5
20
-259.5
10
-696.5
20
-259.5
10
-696.5
20
-253.00000000000011
10
-703
20
-253.00000000000011
10
-703
20
-240
10
-696.5
20
-240
10
-696.5
20
-233.50000000000009
0
LWPOLYLINE
5
105
100
AcDbEntity
8
0
100
AcDbPolyline
90
12
70
1
43
0.0
10
-283.5
20
-153.50000000000009
10
-283.5
20
-160
10
-277
20
-160
10
-277
20
-173.00000000000011
10
-283.5
20
-173.00000000000011
10
-283.5
20
-179.50000000000003
10
-296.5
20
-179.50000000000003
10
-296.5
20
-173.00000000000011
10
-303
20
-173.00000000000011
10
-303
20
-160
10
-296.5
20
-160
10
-296.5
20
-153.50000000000009
0
LWPOLYLINE
5
106
100
AcDbEntity
8
0
100
AcDbPolyline
90
12
70
1
43
0.0
10
-43.5
20
-233.50000000000009
10
-43.5
20
-240
10
-37.000000000000028
20
-240
10
-37.000000000000028
20
-253.00000000000011
10
-43.5
20
-253.00000000000011
10
-43.5
20
-259.5
10
-56.5
20
-259.5
10
-56.5
20
-253.00000000000011
10
-62.999999999999972
20
-253.00000000000011
10
-62.999999999999972
20
-240
10
-56.5
20
-240
10
-56.5
20
-233.50000000000009
0
LWPOLYLINE
5
107
100
AcDbEntity
8
0
100
AcDbPolyline
90
12
70
1
43
0.0
10
-763.5
20
-153.50000000000009
10
-763.5
20
-160
10
-757
20
-160
10
-757
20
-173.00000000000011
10
-763.5
20
-173.00000000000011
10
-763.5
20
-179.50000000000003
10
-776.5
20
-179.50000000000003
10
-776.5
20
-173.00000000000011
10
-783
20
-173.00000000000011
10
-783
20
-160
10
-776.5
20
-160
10
-776.5
20
-153.50000000000009
0
LWPOLYLINE
5
108
100
AcDbEntity
8
0
100
AcDbPolyline
90
12
70
1
43
0.0
10
-843.5
20
-393.50000000000011
10
-843.5
20
-400
10
-837
20
-400
10
-837
20
-413.00000000000011
10
-843.5
20
-413.00000000000011
10
-843.5
20
-419.5
10
-856.5
20
-419.5
10
-856.5
20
-413.00000000000011
10
-863
20
-413.00000000000011
10
-863
20
-400
10
-856.5
20
-400
10
-856.5
20
-393.50000000000011
0
LWPOLYLINE
5
109
100
AcDbEntity
8
0
100
AcDbPolyline
90
12
70
1
43
0.0
10
-1003.5
20
-393.50000000000011
10
-1003.5
20
-400
10
-997
20
-400
10
-997
20
-413.00000000000011
10
-1003.5
20
-413.00000000000011
10
-1003.5
20
-419.5
10
-1016.5
20
-419.5
10
-1016.5
20
-413.00000000000011
10
-1023
20
-413.00000000000011
10
-1023
20
-400
10
-1016.5
20
-400
10
-1016.5
20
-393.50000000000011
0
LWPOLYLINE
5
110
100
AcDbEntity
8
0
100
AcDbPolyline
90
12
70
1
43
0.0
10
-683.5
20
-393.50000000000011
10
-683.5
20
-400
10
-677
20
-400
10
-677
20
-413.00000000000011
10
-683.5
20
-413.00000000000011
10
-683.5
20
-419.5
10
-696.5
20
-419.5
10
-696.5
20
-413.00000000000011
10
-703
20
-413.00000000000011
10
-703
20
-400
10
-696.5
20
-400
10
-696.5
20
-393.50000000000011
0
LWPOLYLINE
5
111
100
AcDbEntity
8
0
100
AcDbPolyline
90
12
70
1
43
0.0
10
-603.5
20
-473.50000000000011
10
-603.5
20
-480
10
-597
20
-480
10
-597
20
-493.00000000000011
10
-603.5
20
-493.00000000000011
10
-603.5
20
-499.5
10
-616.5
20
-499.5
10
-616.5
20
-493.00000000000011
10
-623
20
-493.00000000000011
10
-623
20
-480
10
-616.5
20
-480
10
-616.5
20
-473.50000000000011
0
LWPOLYLINE
5
112
100
AcDbEntity
8
0
100
AcDbPolyline
90
12
70
1
43
0.0
10
-443.5
20
-393.50000000000011
10
-443.5
20
-400
10
-437
20
-400
10
-437
20
-413.00000000000011
10
-443.5
20
-413.00000000000011
10
-443.5
20
-419.5
10
-456.5
20
-419.5
10
-456.5
20
-413.00000000000011
10
-463
20
-413.00000000000011
10
-463
20
-400
10
-456.5
20
-400
10
-456.5
20
-393.50000000000011
0
LWPOLYLINE
5
113
100
AcDbEntity
8
0
100
AcDbPolyline
90
12
70
1
43
0.0
10
-443.5
20
-313.50000000000011
10
-443.5
20
-320
10
-437
20
-320
10
-437
20
-333.00000000000011
10
-443.5
20
-333.00000000000011
10
-443.5
20
-339.5
10
-456.5
20
-339.5
10
-456.5
20
-333.00000000000011
10
-463
20
-333.00000000000011
10
-463
20
-320
10
-456.5
20
-320
10
-456.5
20
-313.50000000000011
0
LWPOLYLINE
5
114
100
AcDbEntity
8
0
100
AcDbPolyline
90
12
70
1
43
0.0
10
-123.5
20
-393.50000000000011
10
-123.5
20
-400
10
-117.00000000000003
20
-400
10
-117.00000000000003
20
-413.00000000000011
10
-123.5
20
-413.00000000000011
10
-123.5
20
-419.5
10
-136.5
20
-419.5
10
-136.5
20
-413.00000000000011
10
-142.99999999999997
20
-413.00000000000011
10
-142.99999999999997
20
-400
10
-136.5
20
-400
10
-136.5
20
-393.50000000000011
0
LWPOLYLINE
5
115
100
AcDbEntity
8
0
100
AcDbPolyline
90
12
70
1
43
0.0
10
-283.5
20
-313.50000000000011
10
-283.5
20
-320
10
-277
20
-320
10
-277
20
-333.00000000000011
10
-283.5
20
-333.00000000000011
10
-283.5
20
-339.5
10
-296.5
20
-339.5
10
-296.5
20
-333.00000000000011
10
-303
20
-333.00000000000011
10
-303
20
-320
10
-296.5
20
-320
10
-296.5
20
-313.50000000000011
0
LWPOLYLINE
5
116
100
AcDbEntity
8
0
100
AcDbPolyline
90
12
70
1
43
0.0
10
-283.5
20
-553.50000000000011
10
-283.5
20
-560
10
-277
20
-560
10
-277
20
-573.00000000000011
10
-283.5
20
-573.00000000000011
10
-283.5
20
-579.5
10
-296.5
20
-579.5
10
-296.5
20
-573.00000000000011
10
-303
20
-573.00000000000011
10
-303
20
-560
10
-296.5
20
-560
10
-296.5
20
-553.50000000000011
0
LWPOLYLINE
5
117
100
AcDbEntity
8
0
100
AcDbPolyline
90
12
70
1
43
0.0
10
-1003.5
20
-713.50000000000011
10
-1003.5
20
-720
10
-997
20
-720
10
-997
20
-733.00000000000011
10
-1003.5
20
-733.00000000000011
10
-1003.5
20
-739.5
10
-1016.5
20
-739.5
10
-1016.5
20
-733.00000000000011
10
-1023
20
-733.00000000000011
10
-1023
20
-720
10
-1016.5
20
-720
10
-1016.5
20
-713.50000000000011
0
LWPOLYLINE
5
118
100
AcDbEntity
8
0
100
AcDbPolyline
90
12
70
1
43
0.0
10
-683.5
20
-713.50000000000011
10
-683.5
20
-720
10
-677
20
-720
10
-677
20
-733.00000000000011
10
-683.5
20
-733.00000000000011
10
-683.5
20
-739.5
10
-696.5
20
-739.5
10
-696.5
20
-733.00000000000011
10
-703
20
-733.00000000000011
10
-703
20
-720
10
-696.5
20
-720
10
-696.5
20
-713.50000000000011
0
LWPOLYLINE
5
119
100
AcDbEntity
8
0
100
AcDbPolyline
90
12
70
1
43
0.0
10
-763.5
20
-713.50000000000011
10
-763.5
20
-720
10
-757
20
-720
10
-757
20
-733.00000000000011
10
-763.5
20
-733.00000000000011
10
-763.5
20
-739.5
10
-776.5
20
-739.5
10
-776.5
20
-733.00000000000011
10
-783
20
-733.00000000000011
10
-783
20
-720
10
-776.5
20
-720
10
-776.5
20
-713.50000000000011
0
LWPOLYLINE
5
120
100
AcDbEntity
8
0
100
AcDbPolyline
90
12
70
1
43
0.0
10
-923.5
20
-553.50000000000011
10
-923.5
20
-560
10
-917
20
-560
10
-917
20
-573.00000000000011
10
-923.5
20
-573.00000000000011
10
-923.5
20
-579.5
10
-936.5
20
-579.5
10
-936.5
20
-573.00000000000011
10
-943
20
-573.00000000000011
10
-943
20
-560
10
-936.5
20
-560
10
-936.5
20
-553.50000000000011
0
LWPOLYLINE
5
121
100
AcDbEntity
8
0
100
AcDbPolyline
90
12
70
1
43
0.0
10
-843.5
20
-553.50000000000011
10
-843.5
20
-560
10
-837
20
-560
10
-837
20
-573.00000000000011
10
-843.5
20
-573.00000000000011
10
-843.5
20
-579.5
10
-856.5
20
-579.5
10
-856.5
20
-573.00000000000011
10
-863
20
-573.00000000000011
10
-863
20
-560
10
-856.5
20
-560
10
-856.5
20
-553.50000000000011
0
LWPOLYLINE
5
122
100
AcDbEntity
8
0
100
AcDbPolyline
90
12
70
1
43
0.0
10
-363.5
20
-553.50000000000011
10
-363.5
20
-560
10
-357
20
-560
10
-357
20
-573.00000000000011
10
-363.5
20
-573.00000000000011
10
-363.5
20
-579.5
10
-376.5
20
-579.5
10
-376.5
20
-573.00000000000011
10
-383
20
-573.00000000000011
10
-383
20
-560
10
-376.5
20
-560
10
-376.5
20
-553.50000000000011
0
LWPOLYLINE
5
123
100
AcDbEntity
8
0
100
AcDbPolyline
90
12
70
1
43
0.0
10
-123.5
20
-713.50000000000011
10
-123.5
20
-720
10
-117.00000000000003
20
-720
10
-117.00000000000003
20
-733.00000000000011
10
-123.5
20
-733.00000000000011
10
-123.5
20
-739.5
10
-136.5
20
-739.5
10
-136.5
20
-733.00000000000011
10
-142.99999999999997
20
-733.00000000000011
10
-142.99999999999997
20
-720
10
-136.5
20
-720
10
-136.5
20
-713.50000000000011
0
LWPOLYLINE
5
124
100
AcDbEntity
8
0
100
AcDbPolyline
90
12
70
1
43
0.0
10
-203.5
20
-553.50000000000011
10
-203.5
20
-560
10
-197.00000000000003
20
-560
10
-197.00000000000003
20
-573.00000000000011
10
-203.5
20
-573.00000000000011
10
-203.5
20
-579.5
10
-216.5
20
-579.5
10
-216.5
20
-573.00000000000011
10
-222.99999999999997
20
-573.00000000000011
10
-222.99999999999997
20
-560
10
-216.5
20
-560
10
-216.5
20
-553.50000000000011
0
LWPOLYLINE
5
125
100
AcDbEntity
8
0
100
AcDbPolyline
90
12
70
1
43
0.0
10
-443.5
20
-553.50000000000011
10
-443.5
20
-560
10
-437
20
-560
10
-437
20
-573.00000000000011
10
-443.5
20
-573.00000000000011
10
-443.5
20
-579.5
10
-456.5
20
-579.5
10
-456.5
20
-573.00000000000011
10
-463
20
-573.00000000000011
10
-463
20
-560
10
-456.5
20
-560
10
-456.5
20
-553.50000000000011
0
LWPOLYLINE
5
126
100
AcDbEntity
8
0
100
AcDbPolyline
90
12
70
1
43
0.0
10
-603.5
20
-553.50000000000011
10
-603.5
20
-560
10
-597
20
-560
10
-597
20
-573.00000000000011
10
-603.5
20
-573.00000000000011
10
-603.5
20
-579.5
10
-616.5
20
-579.5
10
-616.5
20
-573.00000000000011
10
-623
20
-573.00000000000011
10
-623
20
-560
10
-616.5
20
-560
10
-616.5
20
-553.50000000000011
0
LWPOLYLINE
5
127
100
AcDbEntity
8
0
100
AcDbPolyline
90
12
70
1
43
0.0
10
-683.5
20
-553.50000000000011
10
-683.5
20
-560
10
-677
20
-560
10
-677
20
-573.00000000000011
10
-683.5
20
-573.00000000000011
10
-683.5
20
-579.5
10
-696.5
20
-579.5
10
-696.5
20
-573.00000000000011
10
-703
20
-573.00000000000011
10
-703
20
-560
10
-696.5
20
-560
10
-696.5
20
-553.50000000000011
0
LWPOLYLINE
5
128
100
AcDbEntity
8
0
100
AcDbPolyline
90
12
70
1
43
0.0
10
-1083.5
20
-553.50000000000011
10
-1083.5
20
-560
10
-1077
20
-560
10
-1077
20
-573.00000000000011
10
-1083.5
20
-573.00000000000011
10
-1083.5
20
-579.5
10
-1096.5
20
-579.5
10
-1096.5
20
-573.00000000000011
10
-1103
20
-573.00000000000011
10
-1103
20
-560
10
-1096.5
20
-560
10
-1096.5
20
-553.50000000000011
0
LWPOLYLINE
5
129
100
AcDbEntity
8
0
100
AcDbPolyline
90
12
70
1
43
0.0
10
-1003.5
20
-553.50000000000011
10
-1003.5
20
-560
10
-997
20
-560
10
-997
20
-573.00000000000011
10
-1003.5
20
-573.00000000000011
10
-1003.5
20
-579.5
10
-1016.5
20
-579.5
10
-1016.5
20
-573.00000000000011
10
-1023
20
-573.00000000000011
10
-1023
20
-560
10
-1016.5
20
-560
10
-1016.5
20
-553.50000000000011
0
LWPOLYLINE
5
130
100
AcDbEntity
8
0
100
AcDbPolyline
90
12
70
1
43
0.0
10
-1083.5
20
-633.50000000000011
10
-1083.5
20
-640
10
-1077
20
-640
10
-1077
20
-653.00000000000011
10
-1083.5
20
-653.00000000000011
10
-1083.5
20
-659.5
10
-1096.5
20
-659.5
10
-1096.5
20
-653.00000000000011
10
-1103
20
-653.00000000000011
10
-1103
20
-640
10
-1096.5
20
-640
10
-1096.5
20
-633.50000000000011
0
LWPOLYLINE
5
131
100
AcDbEntity
8
0
100
AcDbPolyline
90
12
70
1
43
0.0
10
-923.5
20
-633.50000000000011
10
-923.5
20
-640
10
-917
20
-640
10
-917
20
-653.00000000000011
10
-923.5
20
-653.00000000000011
10
-923.5
20
-659.5
10
-936.5
20
-659.5
10
-936.5
20
-653.00000000000011
10
-943
20
-653.00000000000011
10
-943
20
-640
10
-936.5
20
-640
10
-936.5
20
-633.50000000000011
0
LWPOLYLINE
5
132
100
AcDbEntity
8
0
100
AcDbPolyline
90
12
70
1
43
0.0
10
-123.5
20
-633.50000000000011
10
-123.5
20
-640
10
-117.00000000000003
20
-640
10
-117.00000000000003
20
-653.00000000000011
10
-123.5
20
-653.00000000000011
10
-123.5
20
-659.5
10
-136.5
20
-659.5
10
-136.5
20
-653.00000000000011
10
-142.99999999999997
20
-653.00000000000011
10
-142.99999999999997
20
-640
10
-136.5
20
-640
10
-136.5
20
-633.50000000000011
0
LWPOLYLINE
5
133
100
AcDbEntity
8
0
100
AcDbPolyline
90
12
70
1
43
0.0
10
-43.5
20
-553.50000000000011
10
-43.5
20
-560
10
-37.000000000000028
20
-560
10
-37.000000000000028
20
-573.00000000000011
10
-43.5
20
-573.00000000000011
10
-43.5
20
-579.5
10
-56.5
20
-579.5
10
-56.5
20
-573.00000000000011
10
-62.999999999999972
20
-573.00000000000011
10
-62.999999999999972
20
-560
10
-56.5
20
-560
10
-56.5
20
-553.50000000000011
0
LWPOLYLINE
5
134
100
AcDbEntity
8
0
100
AcDbPolyline
90
12
70
1
43
0.0
10
-203.5
20
-393.50000000000011
10
-203.5
20
-400
10
-197.00000000000003
20
-400
10
-197.00000000000003
20
-413.00000000000011
10
-203.5
20
-413.00000000000011
10
-203.5
20
-419.5
10
-216.5
20
-419.5
10
-216.5
20
-413.00000000000011
10
-222.99999999999997
20
-413.00000000000011
10
-222.99999999999997
20
-400
10
-216.5
20
-400
10
-216.5
20
-393.50000000000011
0
LWPOLYLINE
5
135
100
AcDbEntity
8
0
100
AcDbPolyline
90
12
70
1
43
0.0
10
-923.5
20
-313.50000000000011
10
-923.5
20
-320
10
-917
20
-320
10
-917
20
-333.00000000000011
10
-923.5
20
-333.00000000000011
10
-923.5
20
-339.5
10
-936.5
20
-339.5
10
-936.5
20
-333.00000000000011
10
-943
20
-333.00000000000011
10
-943
20
-320
10
-936.5
20
-320
10
-936.5
20
-313.50000000000011
0
LWPOLYLINE
5
136
100
AcDbEntity
8
0
100
AcDbPolyline
90
12
70
1
43
0.0
10
-523.5
20
-393.50000000000011
10
-523.5
20
-400
10
-517
20
-400
10
-517
20
-413.00000000000011
10
-523.5
20
-413.00000000000011
10
-523.5
20
-419.5
10
-536.5
20
-419.5
10
-536.5
20
-413.00000000000011
10
-543
20
-413.00000000000011
10
-543
20
-400
10
-536.5
20
-400
10
-536.5
20
-393.50000000000011
0
LWPOLYLINE
5
137
100
AcDbEntity
8
0
100
AcDbPolyline
90
12
70
1
43
0.0
10
-763.5
20
-393.50000000000011
10
-763.5
20
-400
10
-757
20
-400
10
-757
20
-413.00000000000011
10
-763.5
20
-413.00000000000011
10
-763.5
20
-419.5
10
-776.5
20
-419.5
10
-776.5
20
-413.00000000000011
10
-783
20
-413.00000000000011
10
-783
20
-400
10
-776.5
20
-400
10
-776.5
20
-393.50000000000011
0
LWPOLYLINE
5
138
100
AcDbEntity
8
0
100
AcDbPolyline
90
12
70
1
43
0.0
10
-923.5
20
-473.50000000000011
10
-923.5
20
-480
10
-917
20
-480
10
-917
20
-493.00000000000011
10
-923.5
20
-493.00000000000011
10
-923.5
20
-499.5
10
-936.5
20
-499.5
10
-936.5
20
-493.00000000000011
10
-943
20
-493.00000000000011
10
-943
20
-480
10
-936.5
20
-480
10
-936.5
20
-473.50000000000011
0
LWPOLYLINE
5
139
100
AcDbEntity
8
0
100
AcDbPolyline
90
12
70
1
43
0.0
10
-1083.5
20
-393.50000000000011
10
-1083.5
20
-400
10
-1077
20
-400
10
-1077
20
-413.00000000000011
10
-1083.5
20
-413.00000000000011
10
-1083.5
20
-419.5
10
-1096.5
20
-419.5
10
-1096.5
20
-413.00000000000011
10
-1103
20
-413.00000000000011
10
-1103
20
-400
10
-1096.5
20
-400
10
-1096.5
20
-393.50000000000011
0
LWPOLYLINE
5
140
100
AcDbEntity
8
0
100
AcDbPolyline
90
12
70
1
43
0.0
10
-203.5
20
-233.50000000000009
10
-203.5
20
-240
10
-197.00000000000003
20
-240
10
-197.00000000000003
20
-253.00000000000011
10
-203.5
20
-253.00000000000011
10
-203.5
20
-259.5
10
-216.5
20
-259.5
10
-216.5
20
-253.00000000000011
10
-222.99999999999997
20
-253.00000000000011
10
-222.99999999999997
20
-240
10
-216.5
20
-240
10
-216.5
20
-233.50000000000009
0
LWPOLYLINE
5
141
100
AcDbEntity
8
0
100
AcDbPolyline
90
12
70
1
43
0.0
10
-603.5
20
-153.50000000000009
10
-603.5
20
-160
10
-597
20
-160
10
-597
20
-173.00000000000011
10
-603.5
20
-173.00000000000011
10
-603.5
20
-179.50000000000003
10
-616.5
20
-179.50000000000003
10
-616.5
20
-173.00000000000011
10
-623
20
-173.00000000000011
10
-623
20
-160
10
-616.5
20
-160
10
-616.5
20
-153.50000000000009
0
LWPOLYLINE
5
142
100
AcDbEntity
8
0
100
AcDbPolyline
90
12
70
1
43
0.0
10
-923.5
20
-233.50000000000009
10
-923.5
20
-240
10
-917
20
-240
10
-917
20
-253.00000000000011
10
-923.5
20
-253.00000000000011
10
-923.5
20
-259.5
10
-936.5
20
-259.5
10
-936.5
20
-253.00000000000011
10
-943
20
-253.00000000000011
10
-943
20
-240
10
-936.5
20
-240
10
-936.5
20
-233.50000000000009
0
LWPOLYLINE
5
143
100
AcDbEntity
8
0
100
AcDbPolyline
90
12
70
1
43
0.0
10
-363.5
20
-233.50000000000009
10
-363.5
20
-240
10
-357
20
-240
10
-357
20
-253.00000000000011
10
-363.5
20
-253.00000000000011
10
-363.5
20
-259.5
10
-376.5
20
-259.5
10
-376.5
20
-253.00000000000011
10
-383
20
-253.00000000000011
10
-383
20
-240
10
-376.5
20
-240
10
-376.5
20
-233.50000000000009
0
LWPOLYLINE
5
144
100
AcDbEntity
8
0
100
AcDbPolyline
90
12
70
1
43
0.0
10
-443.5
20
-73.500000000000085
10
-443.5
20
-80
10
-437
20
-80
10
-437
20
-93.000000000000114
10
-443.5
20
-93.000000000000114
10
-443.5
20
-99.500000000000028
10
-456.5
20
-99.500000000000028
10
-456.5
20
-93.000000000000114
10
-463
20
-93.000000000000114
10
-463
20
-80
10
-456.5
20
-80
10
-456.5
20
-73.500000000000085
0
LWPOLYLINE
5
145
100
AcDbEntity
8
0
100
AcDbPolyline
90
12
70
1
43
0.0
10
-763.5
20
-73.500000000000085
10
-763.5
20
-80
10
-757
20
-80
10
-757
20
-93.000000000000114
10
-763.5
20
-93.000000000000114
10
-763.5
20
-99.500000000000028
10
-776.5
20
-99.500000000000028
10
-776.5
20
-93.000000000000114
10
-783
20
-93.000000000000114
10
-783
20
-80
10
-776.5
20
-80
10
-776.5
20
-73.500000000000085
0
LWPOLYLINE
5
146
100
AcDbEntity
8
0
100
AcDbPolyline
90
12
70
1
43
0.0
10
-683.5
20
-73.500000000000085
10
-683.5
20
-80
10
-677
20
-80
10
-677
20
-93.000000000000114
10
-683.5
20
-93.000000000000114
10
-683.5
20
-99.500000000000028
10
-696.5
20
-99.500000000000028
10
-696.5
20
-93.000000000000114
10
-703
20
-93.000000000000114
10
-703
20
-80
10
-696.5
20
-80
10
-696.5
20
-73.500000000000085
0
LWPOLYLINE
5
147
100
AcDbEntity
8
0
100
AcDbPolyline
90
12
70
1
43
0.0
10
-283.5
20
-73.500000000000085
10
-283.5
20
-80
10
-277
20
-80
10
-277
20
-93.000000000000114
10
-283.5
20
-93.000000000000114
10
-283.5
20
-99.500000000000028
10
-296.5
20
-99.500000000000028
10
-296.5
20
-93.000000000000114
10
-303
20
-93.000000000000114
10
-303
20
-80
10
-296.5
20
-80
10
-296.5
20
-73.500000000000085
0
LWPOLYLINE
5
148
100
AcDbEntity
8
0
100
AcDbPolyline
90
12
70
1
43
0.0
10
-203.5
20
-73.500000000000085
10
-203.5
20
-80
10
-197.00000000000003
20
-80
10
-197.00000000000003
20
-93.000000000000114
10
-203.5
20
-93.000000000000114
10
-203.5
20
-99.500000000000028
10
-216.5
20
-99.500000000000028
10
-216.5
20
-93.000000000000114
10
-222.99999999999997
20
-93.000000000000114
10
-222.99999999999997
20
-80
10
-216.5
20
-80
10
-216.5
20
-73.500000000000085
0
LWPOLYLINE
5
149
100
AcDbEntity
8
0
100
AcDbPolyline
90
12
70
1
43
0.0
10
-123.5
20
-73.500000000000085
10
-123.5
20
-80
10
-117.00000000000003
20
-80
10
-117.00000000000003
20
-93.000000000000114
10
-123.5
20
-93.000000000000114
10
-123.5
20
-99.500000000000028
10
-136.5
20
-99.500000000000028
10
-136.5
20
-93.000000000000114
10
-142.99999999999997
20
-93.000000000000114
10
-142.99999999999997
20
-80
10
-136.5
20
-80
10
-136.5
20
-73.500000000000085
0
LWPOLYLINE
5
150
100
AcDbEntity
8
0
100
AcDbPolyline
90
12
70
1
43
0.0
10
-923.5
20
-73.500000000000085
10
-923.5
20
-80
10
-917
20
-80
10
-917
20
-93.000000000000114
10
-923.5
20
-93.000000000000114
10
-923.5
20
-99.500000000000028
10
-936.5
20
-99.500000000000028
10
-936.5
20
-93.000000000000114
10
-943
20
-93.000000000000114
10
-943
20
-80
10
-936.5
20
-80
10
-936.5
20
-73.500000000000085
0
LWPOLYLINE
5
151
100
AcDbEntity
8
0
100
AcDbPolyline
90
12
70
1
43
0.0
10
-843.5
20
-73.500000000000085
10
-843.5
20
-80
10
-837
20
-80
10
-837
20
-93.000000000000114
10
-843.5
20
-93.000000000000114
10
-843.5
20
-99.500000000000028
10
-856.5
20
-99.500000000000028
10
-856.5
20
-93.000000000000114
10
-863
20
-93.000000000000114
10
-863
20
-80
10
-856.5
20
-80
10
-856.5
20
-73.500000000000085
0
LWPOLYLINE
5
152
100
AcDbEntity
8
0
100
AcDbPolyline
90
12
70
1
43
0.0
10
-1083.5
20
-153.50000000000009
10
-1083.5
20
-160
10
-1077
20
-160
10
-1077
20
-173.00000000000011
10
-1083.5
20
-173.00000000000011
10
-1083.5
20
-179.50000000000003
10
-1096.5
20
-179.50000000000003
10
-1096.5
20
-173.00000000000011
10
-1103
20
-173.00000000000011
10
-1103
20
-160
10
-1096.5
20
-160
10
-1096.5
20
-153.50000000000009
0
LWPOLYLINE
5
153
100
AcDbEntity
8
0
100
AcDbPolyline
90
12
70
1
43
0.0
10
-763.5
20
-233.50000000000009
10
-763.5
20
-240
10
-757
20
-240
10
-757
20
-253.00000000000011
10
-763.5
20
-253.00000000000011
10
-763.5
20
-259.5
10
-776.5
20
-259.5
10
-776.5
20
-253.00000000000011
10
-783
20
-253.00000000000011
10
-783
20
-240
10
-776.5
20
-240
10
-776.5
20
-233.50000000000009
0
LWPOLYLINE
5
154
100
AcDbEntity
8
0
100
AcDbPolyline
90
12
70
1
43
0.0
10
-523.5
20
-233.50000000000009
10
-523.5
20
-240
10
-517
20
-240
10
-517
20
-253.00000000000011
10
-523.5
20
-253.00000000000011
10
-523.5
20
-259.5
10
-536.5
20
-259.5
10
-536.5
20
-253.00000000000011
10
-543
20
-253.00000000000011
10
-543
20
-240
10
-536.5
20
-240
10
-536.5
20
-233.50000000000009
0
LWPOLYLINE
5
155
100
AcDbEntity
8
0
100
AcDbPolyline
90
12
70
1
43
0.0
10
-123.5
20
-233.50000000000009
10
-123.5
20
-240
10
-117.00000000000003
20
-240
10
-117.00000000000003
20
-253.00000000000011
10
-123.5
20
-253.00000000000011
10
-123.5
20
-259.5
10
-136.5
20
-259.5
10
-136.5
20
-253.00000000000011
10
-142.99999999999997
20
-253.00000000000011
10
-142.99999999999997
20
-240
10
-136.5
20
-240
10
-136.5
20
-233.50000000000009
0
LWPOLYLINE
5
156
100
AcDbEntity
8
0
100
AcDbPolyline
90
12
70
1
43
0.0
10
-283.5
20
-233.50000000000009
10
-283.5
20
-240
10
-277
20
-240
10
-277
20
-253.00000000000011
10
-283.5
20
-253.00000000000011
10
-283.5
20
-259.5
10
-296.5
20
-259.5
10
-296.5
20
-253.00000000000011
10
-303
20
-253.00000000000011
10
-303
20
-240
10
-296.5
20
-240
10
-296.5
20
-233.50000000000009
0
LWPOLYLINE
5
157
100
AcDbEntity
8
0
100
AcDbPolyline
90
12
70
1
43
0.0
10
-1163.5
20
-393.50000000000011
10
-1163.5
20
-400
10
-1157
20
-400
10
-1157
20
-413.00000000000011
10
-1163.5
20
-413.00000000000011
10
-1163.5
20
-419.5
10
-1176.5
20
-419.5
10
-1176.5
20
-413.00000000000011
10
-1183
20
-413.00000000000011
10
-1183
20
-400
10
-1176.5
20
-400
10
-1176.5
20
-393.50000000000011
0
LWPOLYLINE
5
158
100
AcDbEntity
8
0
100
AcDbPolyline
90
12
70
1
43
0.0
10
-923.5
20
-393.50000000000011
10
-923.5
20
-400
10
-917
20
-400
10
-917
20
-413.00000000000011
10
-923.5
20
-413.00000000000011
10
-923.5
20
-419.5
10
-936.5
20
-419.5
10
-936.5
20
-413.00000000000011
10
-943
20
-413.00000000000011
10
-943
20
-400
10
-936.5
20
-400
10
-936.5
20
-393.50000000000011
0
LWPOLYLINE
5
159
100
AcDbEntity
8
0
100
AcDbPolyline
90
12
70
1
43
0.0
10
-763.5
20
-473.50000000000011
10
-763.5
20
-480
10
-757
20
-480
10
-757
20
-493.00000000000011
10
-763.5
20
-493.00000000000011
10
-763.5
20
-499.5
10
-776.5
20
-499.5
10
-776.5
20
-493.00000000000011
10
-783
20
-493.00000000000011
10
-783
20
-480
10
-776.5
20
-480
10
-776.5
20
-473.50000000000011
0
LWPOLYLINE
5
160
100
AcDbEntity
8
0
100
AcDbPolyline
90
12
70
1
43
0.0
10
-1083.5
20
-313.50000000000011
10
-1083.5
20
-320
10
-1077
20
-320
10
-1077
20
-333.00000000000011
10
-1083.5
20
-333.00000000000011
10
-1083.5
20
-339.5
10
-1096.5
20
-339.5
10
-1096.5
20
-333.00000000000011
10
-1103
20
-333.00000000000011
10
-1103
20
-320
10
-1096.5
20
-320
10
-1096.5
20
-313.50000000000011
0
LWPOLYLINE
5
161
100
AcDbEntity
8
0
100
AcDbPolyline
90
12
70
1
43
0.0
10
-603.5
20
-393.50000000000011
10
-603.5
20
-400
10
-597
20
-400
10
-597
20
-413.00000000000011
10
-603.5
20
-413.00000000000011
10
-603.5
20
-419.5
10
-616.5
20
-419.5
10
-616.5
20
-413.00000000000011
10
-623
20
-413.00000000000011
10
-623
20
-400
10
-616.5
20
-400
10
-616.5
20
-393.50000000000011
0
LWPOLYLINE
5
162
100
AcDbEntity
8
0
100
AcDbPolyline
90
12
70
1
43
0.0
10
-123.5
20
-473.50000000000011
10
-123.5
20
-480
10
-117.00000000000003
20
-480
10
-117.00000000000003
20
-493.00000000000011
10
-123.5
20
-493.00000000000011
10
-123.5
20
-499.5
10
-136.5
20
-499.5
10
-136.5
20
-493.00000000000011
10
-142.99999999999997
20
-493.00000000000011
10
-142.99999999999997
20
-480
10
-136.5
20
-480
10
-136.5
20
-473.50000000000011
0
LWPOLYLINE
5
163
100
AcDbEntity
8
0
100
AcDbPolyline
90
12
70
1
43
0.0
10
-283.5
20
-473.50000000000011
10
-283.5
20
-480
10
-277
20
-480
10
-277
20
-493.00000000000011
10
-283.5
20
-493.00000000000011
10
-283.5
20
-499.5
10
-296.5
20
-499.5
10
-296.5
20
-493.00000000000011
10
-303
20
-493.00000000000011
10
-303
20
-480
10
-296.5
20
-480
10
-296.5
20
-473.50000000000011
0
LWPOLYLINE
5
164
100
AcDbEntity
8
0
100
AcDbPolyline
90
12
70
1
43
0.0
10
-363.5
20
-393.50000000000011
10
-363.5
20
-400
10
-357
20
-400
10
-357
20
-413.00000000000011
10
-363.5
20
-413.00000000000011
10
-363.5
20
-419.5
10
-376.5
20
-419.5
10
-376.5
20
-413.00000000000011
10
-383
20
-413.00000000000011
10
-383
20
-400
10
-376.5
20
-400
10
-376.5
20
-393.50000000000011
0
LWPOLYLINE
5
165
100
AcDbEntity
8
0
100
AcDbPolyline
90
12
70
1
43
0.0
10
-283.5
20
-393.50000000000011
10
-283.5
20
-400
10
-277
20
-400
10
-277
20
-413.00000000000011
10
-283.5
20
-413.00000000000011
10
-283.5
20
-419.5
10
-296.5
20
-419.5
10
-296.5
20
-413.00000000000011
10
-303
20
-413.00000000000011
10
-303
20
-400
10
-296.5
20
-400
10
-296.5
20
-393.50000000000011
0
LWPOLYLINE
5
166
100
AcDbEntity
8
0
100
AcDbPolyline
90
12
70
1
43
0.0
10
-123.5
20
-313.50000000000011
10
-123.5
20
-320
10
-117.00000000000003
20
-320
10
-117.00000000000003
20
-333.00000000000011
10
-123.5
20
-333.00000000000011
10
-123.5
20
-339.5
10
-136.5
20
-339.5
10
-136.5
20
-333.00000000000011
10
-142.99999999999997
20
-333.00000000000011
10
-142.99999999999997
20
-320
10
-136.5
20
-320
10
-136.5
20
-313.50000000000011
0
LWPOLYLINE
5
167
100
AcDbEntity
8
0
100
AcDbPolyline
90
12
70
1
43
0.0
10
-123.5
20
-553.50000000000011
10
-123.5
20
-560
10
-117.00000000000003
20
-560
10
-117.00000000000003
20
-573.00000000000011
10
-123.5
20
-573.00000000000011
10
-123.5
20
-579.5
10
-136.5
20
-579.5
10
-136.5
20
-573.00000000000011
10
-142.99999999999997
20
-573.00000000000011
10
-142.99999999999997
20
-560
10
-136.5
20
-560
10
-136.5
20
-553.50000000000011
0
LWPOLYLINE
5
168
100
AcDbEntity
8
0
100
AcDbPolyline
90
12
70
1
43
0.0
10
-1083.5
20
-713.50000000000011
10
-1083.5
20
-720
10
-1077
20
-720
10
-1077
20
-733.00000000000011
10
-1083.5
20
-733.00000000000011
10
-1083.5
20
-739.5
10
-1096.5
20
-739.5
10
-1096.5
20
-733.00000000000011
10
-1103
20
-733.00000000000011
10
-1103
20
-720
10
-1096.5
20
-720
10
-1096.5
20
-713.50000000000011
0
LWPOLYLINE
5
169
100
AcDbEntity
8
0
100
AcDbPolyline
90
12
70
1
43
0.0
10
-923.5
20
-713.50000000000011
10
-923.5
20
-720
10
-917
20
-720
10
-917
20
-733.00000000000011
10
-923.5
20
-733.00000000000011
10
-923.5
20
-739.5
10
-936.5
20
-739.5
10
-936.5
20
-733.00000000000011
10
-943
20
-733.00000000000011
10
-943
20
-720
10
-936.5
20
-720
10
-936.5
20
-713.50000000000011
0
LWPOLYLINE
5
170
100
AcDbEntity
8
0
100
AcDbPolyline
90
12
70
1
43
0.0
10
-1163.5
20
-553.50000000000011
10
-1163.5
20
-560
10
-1157
20
-560
10
-1157
20
-573.00000000000011
10
-1163.5
20
-573.00000000000011
10
-1163.5
20
-579.5
10
-1176.5
20
-579.5
10
-1176.5
20
-573.00000000000011
10
-1183
20
-573.00000000000011
10
-1183
20
-560
10
-1176.5
20
-560
10
-1176.5
20
-553.50000000000011
0
LWPOLYLINE
5
171
100
AcDbEntity
8
0
100
AcDbPolyline
90
12
70
1
43
0.0
10
-843.5
20
-713.50000000000011
10
-843.5
20
-720
10
-837
20
-720
10
-837
20
-733.00000000000011
10
-843.5
20
-733.00000000000011
10
-843.5
20
-739.5
10
-856.5
20
-739.5
10
-856.5
20
-733.00000000000011
10
-863
20
-733.00000000000011
10
-863
20
-720
10
-856.5
20
-720
10
-856.5
20
-713.50000000000011
0
LWPOLYLINE
5
172
100
AcDbEntity
8
0
100
AcDbPolyline
90
12
70
1
43
0.0
10
-763.5
20
-633.50000000000011
10
-763.5
20
-640
10
-757
20
-640
10
-757
20
-653.00000000000011
10
-763.5
20
-653.00000000000011
10
-763.5
20
-659.5
10
-776.5
20
-659.5
10
-776.5
20
-653.00000000000011
10
-783
20
-653.00000000000011
10
-783
20
-640
10
-776.5
20
-640
10
-776.5
20
-633.50000000000011
0
LWPOLYLINE
5
173
100
AcDbEntity
8
0
100
AcDbPolyline
90
12
70
1
43
0.0
10
-603.5
20
-633.50000000000011
10
-603.5
20
-640
10
-597
20
-640
10
-597
20
-653.00000000000011
10
-603.5
20
-653.00000000000011
10
-603.5
20
-659.5
10
-616.5
20
-659.5
10
-616.5
20
-653.00000000000011
10
-623
20
-653.00000000000011
10
-623
20
-640
10
-616.5
20
-640
10
-616.5
20
-633.50000000000011
0
LWPOLYLINE
5
174
100
AcDbEntity
8
0
100
AcDbPolyline
90
12
70
1
43
0.0
10
-523.5
20
-553.50000000000011
10
-523.5
20
-560
10
-517
20
-560
10
-517
20
-573.00000000000011
10
-523.5
20
-573.00000000000011
10
-523.5
20
-579.5
10
-536.5
20
-579.5
10
-536.5
20
-573.00000000000011
10
-543
20
-573.00000000000011
10
-543
20
-560
10
-536.5
20
-560
10
-536.5
20
-553.50000000000011
0
LWPOLYLINE
5
175
100
AcDbEntity
8
0
100
AcDbPolyline
90
12
70
1
43
0.0
10
-283.5
20
-713.50000000000011
10
-283.5
20
-720
10
-277
20
-720
10
-277
20
-733.00000000000011
10
-283.5
20
-733.00000000000011
10
-283.5
20
-739.5
10
-296.5
20
-739.5
10
-296.5
20
-733.00000000000011
10
-303
20
-733.00000000000011
10
-303
20
-720
10
-296.5
20
-720
10
-296.5
20
-713.50000000000011
0
LWPOLYLINE
5
176
100
AcDbEntity
8
0
100
AcDbPolyline
90
12
70
1
43
0.0
10
-43.5
20
-713.50000000000011
10
-43.5
20
-720
10
-37.000000000000028
20
-720
10
-37.000000000000028
20
-733.00000000000011
10
-43.5
20
-733.00000000000011
10
-43.5
20
-739.5
10
-56.5
20
-739.5
10
-56.5
20
-733.00000000000011
10
-62.999999999999972
20
-733.00000000000011
10
-62.999999999999972
20
-720
10
-56.5
20
-720
10
-56.5
20
-713.50000000000011
0
LWPOLYLINE
5
177
100
AcDbEntity
8
0
100
AcDbPolyline
90
12
70
1
43
0.0
10
-283.5
20
-633.50000000000011
10
-283.5
20
-640
10
-277
20
-640
10
-277
20
-653.00000000000011
10
-283.5
20
-653.00000000000011
10
-283.5
20
-659.5
10
-296.5
20
-659.5
10
-296.5
20
-653.00000000000011
10
-303
20
-653.00000000000011
10
-303
20
-640
10
-296.5
20
-640
10
-296.5
20
-633.50000000000011
0
LWPOLYLINE
5
178
100
AcDbEntity
8
0
100
AcDbPolyline
90
12
70
1
43
0.0
10
-203.5
20
-713.50000000000011
10
-203.5
20
-720
10
-197.00000000000003
20
-720
10
-197.00000000000003
20
-733.00000000000011
10
-203.5
20
-733.00000000000011
10
-203.5
20
-739.5
10
-216.5
20
-739.5
10
-216.5
20
-733.00000000000011
10
-222.99999999999997
20
-733.00000000000011
10
-222.99999999999997
20
-720
10
-216.5
20
-720
10
-216.5
20
-713.50000000000011
0
LWPOLYLINE
5
179
100
AcDbEntity
8
0
100
AcDbPolyline
90
12
70
1
43
0.0
10
-763.5
20
-553.50000000000011
10
-763.5
20
-560
10
-757
20
-560
10
-757
20
-573.00000000000011
10
-763.5
20
-573.00000000000011
10
-763.5
20
-579.5
10
-776.5
20
-579.5
10
-776.5
20
-573.00000000000011
10
-783
20
-573.00000000000011
10
-783
20
-560
10
-776.5
20
-560
10
-776.5
20
-553.50000000000011
0
LWPOLYLINE
5
180
100
AcDbEntity
8
0
100
AcDbPolyline
90
12
70
1
43
0.0
10
-443.5
20
-713.50000000000011
10
-443.5
20
-720
10
-437
20
-720
10
-437
20
-733.00000000000011
10
-443.5
20
-733.00000000000011
10
-443.5
20
-739.5
10
-456.5
20
-739.5
10
-456.5
20
-733.00000000000011
10
-463
20
-733.00000000000011
10
-463
20
-720
10
-456.5
20
-720
10
-456.5
20
-713.50000000000011
0
LWPOLYLINE
5
181
100
AcDbEntity
8
0
100
AcDbPolyline
90
12
70
1
43
0.0
10
-363.5
20
-713.50000000000011
10
-363.5
20
-720
10
-357
20
-720
10
-357
20
-733.00000000000011
10
-363.5
20
-733.00000000000011
10
-363.5
20
-739.5
10
-376.5
20
-739.5
10
-376.5
20
-733.00000000000011
10
-383
20
-733.00000000000011
10
-383
20
-720
10
-376.5
20
-720
10
-376.5
20
-713.50000000000011
0
LWPOLYLINE
5
182
100
AcDbEntity
8
0
100
AcDbPolyline
90
12
70
1
43
0.0
10
-603.5
20
-713.50000000000011
10
-603.5
20
-720
10
-597
20
-720
10
-597
20
-733.00000000000011
10
-603.5
20
-733.00000000000011
10
-603.5
20
-739.5
10
-616.5
20
-739.5
10
-616.5
20
-733.00000000000011
10
-623
20
-733.00000000000011
10
-623
20
-720
10
-616.5
20
-720
10
-616.5
20
-713.50000000000011
0
LWPOLYLINE
5
183
100
AcDbEntity
8
0
100
AcDbPolyline
90
12
70
1
43
0.0
10
-523.5
20
-713.50000000000011
10
-523.5
20
-720
10
-517
20
-720
10
-517
20
-733.00000000000011
10
-523.5
20
-733.00000000000011
10
-523.5
20
-739.5
10
-536.5
20
-739.5
10
-536.5
20
-733.00000000000011
10
-543
20
-733.00000000000011
10
-543
20
-720
10
-536.5
20
-720
10
-536.5
20
-713.50000000000011
0
LWPOLYLINE
5
184
100
AcDbEntity
8
0
100
AcDbPolyline
90
12
70
1
43
0.0
10
-1163.5
20
-713.50000000000011
10
-1163.5
20
-720
10
-1157
20
-720
10
-1157
20
-733.00000000000011
10
-1163.5
20
-733.00000000000011
10
-1163.5
20
-739.5
10
-1176.5
20
-739.5
10
-1176.5
20
-733.00000000000011
10
-1183
20
-733.00000000000011
10
-1183
20
-720
10
-1176.5
20
-720
10
-1176.5
20
-713.50000000000011
0
LWPOLYLINE
5
185
100
AcDbEntity
8
0
100
AcDbPolyline
90
12
70
1
43
0.0
10
-443.5
20
-633.50000000000011
10
-443.5
20
-640
10
-437
20
-640
10
-437
20
-653.00000000000011
10
-443.5
20
-653.00000000000011
10
-443.5
20
-659.5
10
-456.5
20
-659.5
10
-456.5
20
-653.00000000000011
10
-463
20
-653.00000000000011
10
-463
20
-640
10
-456.5
20
-640
10
-456.5
20
-633.50000000000011
0
LWPOLYLINE
5
186
100
AcDbEntity
8
0
100
AcDbPolyline
90
12
70
1
43
0.0
10
-43.5
20
-393.50000000000011
10
-43.5
20
-400
10
-37.000000000000028
20
-400
10
-37.000000000000028
20
-413.00000000000011
10
-43.5
20
-413.00000000000011
10
-43.5
20
-419.5
10
-56.5
20
-419.5
10
-56.5
20
-413.00000000000011
10
-62.999999999999972
20
-413.00000000000011
10
-62.999999999999972
20
-400
10
-56.5
20
-400
10
-56.5
20
-393.50000000000011
0
LWPOLYLINE
5
187
100
AcDbEntity
8
0
100
AcDbPolyline
90
12
70
1
43
0.0
10
-603.5
20
-313.50000000000011
10
-603.5
20
-320
10
-597
20
-320
10
-597
20
-333.00000000000011
10
-603.5
20
-333.00000000000011
10
-603.5
20
-339.5
10
-616.5
20
-339.5
10
-616.5
20
-333.00000000000011
10
-623
20
-333.00000000000011
10
-623
20
-320
10
-616.5
20
-320
10
-616.5
20
-313.50000000000011
0
LWPOLYLINE
5
188
100
AcDbEntity
8
0
100
AcDbPolyline
90
12
70
1
43
0.0
10
-763.5
20
-313.50000000000011
10
-763.5
20
-320
10
-757
20
-320
10
-757
20
-333.00000000000011
10
-763.5
20
-333.00000000000011
10
-763.5
20
-339.5
10
-776.5
20
-339.5
10
-776.5
20
-333.00000000000011
10
-783
20
-333.00000000000011
10
-783
20
-320
10
-776.5
20
-320
10
-776.5
20
-313.50000000000011
0
LWPOLYLINE
5
189
100
AcDbEntity
8
0
100
AcDbPolyline
90
12
70
1
43
0.0
10
-443.5
20
-473.50000000000011
10
-443.5
20
-480
10
-437
20
-480
10
-437
20
-493.00000000000011
10
-443.5
20
-493.00000000000011
10
-443.5
20
-499.5
10
-456.5
20
-499.5
10
-456.5
20
-493.00000000000011
10
-463
20
-493.00000000000011
10
-463
20
-480
10
-456.5
20
-480
10
-456.5
20
-473.50000000000011
0
LWPOLYLINE
5
190
100
AcDbEntity
8
0
100
AcDbPolyline
90
12
70
1
43
0.0
10
-1083.5
20
-473.50000000000011
10
-1083.5
20
-480
10
-1077
20
-480
10
-1077
20
-493.00000000000011
10
-1083.5
20
-493.00000000000011
10
-1083.5
20
-499.5
10
-1096.5
20
-499.5
10
-1096.5
20
-493.00000000000011
10
-1103
20
-493.00000000000011
10
-1103
20
-480
10
-1096.5
20
-480
10
-1096.5
20
-473.50000000000011
0
LWPOLYLINE
5
191
100
AcDbEntity
8
0
100
AcDbPolyline
90
12
70
1
43
0.0
10
-443.5
20
-153.50000000000009
10
-443.5
20
-160
10
-437
20
-160
10
-437
20
-173.00000000000011
10
-443.5
20
-173.00000000000011
10
-443.5
20
-179.50000000000003
10
-456.5
20
-179.50000000000003
10
-456.5
20
-173.00000000000011
10
-463
20
-173.00000000000011
10
-463
20
-160
10
-456.5
20
-160
10
-456.5
20
-153.50000000000009
0
LWPOLYLINE
5
192
100
AcDbEntity
8
0
100
AcDbPolyline
90
12
70
1
43
0.0
10
-123.5
20
-153.50000000000009
10
-123.5
20
-160
10
-117.00000000000003
20
-160
10
-117.00000000000003
20
-173.00000000000011
10
-123.5
20
-173.00000000000011
10
-123.5
20
-179.50000000000003
10
-136.5
20
-179.50000000000003
10
-136.5
20
-173.00000000000011
10
-142.99999999999997
20
-173.00000000000011
10
-142.99999999999997
20
-160
10
-136.5
20
-160
10
-136.5
20
-153.50000000000009
0
LWPOLYLINE
5
193
100
AcDbEntity
8
0
100
AcDbPolyline
90
12
70
1
43
0.0
10
-1163.5
20
-233.50000000000009
10
-1163.5
20
-240
10
-1157
20
-240
10
-1157
20
-253.00000000000011
10
-1163.5
20
-253.00000000000011
10
-1163.5
20
-259.5
10
-1176.5
20
-259.5
10
-1176.5
20
-253.00000000000011
10
-1183
20
-253.00000000000011
10
-1183
20
-240
10
-1176.5
20
-240
10
-1176.5
20
-233.50000000000009
0
LWPOLYLINE
5
194
100
AcDbEntity
8
0
100
AcDbPolyline
90
12
70
1
43
0.0
10
-923.5
20
-153.50000000000009
10
-923.5
20
-160
10
-917
20
-160
10
-917
20
-173.00000000000011
10
-923.5
20
-173.00000000000011
10
-923.5
20
-179.50000000000003
10
-936.5
20
-179.50000000000003
10
-936.5
20
-173.00000000000011
10
-943
20
-173.00000000000011
10
-943
20
-160
10
-936.5
20
-160
10
-936.5
20
-153.50000000000009
0
LWPOLYLINE
5
195
100
AcDbEntity
8
0
100
AcDbPolyline
90
12
70
1
43
0.0
10
-443.5
20
-233.50000000000009
10
-443.5
20
-240
10
-437
20
-240
10
-437
20
-253.00000000000011
10
-443.5
20
-253.00000000000011
10
-443.5
20
-259.5
10
-456.5
20
-259.5
10
-456.5
20
-253.00000000000011
10
-463
20
-253.00000000000011
10
-463
20
-240
10
-456.5
20
-240
10
-456.5
20
-233.50000000000009
0
LWPOLYLINE
5
196
100
AcDbEntity
8
0
100
AcDbPolyline
90
12
70
1
43
0.0
10
-843.5
20
-233.50000000000009
10
-843.5
20
-240
10
-837
20
-240
10
-837
20
-253.00000000000011
10
-843.5
20
-253.00000000000011
10
-843.5
20
-259.5
10
-856.5
20
-259.5
10
-856.5
20
-253.00000000000011
10
-863
20
-253.00000000000011
10
-863
20
-240
10
-856.5
20
-240
10
-856.5
20
-233.50000000000009
0
LWPOLYLINE
5
197
100
AcDbEntity
8
0
100
AcDbPolyline
90
12
70
1
43
0.0
10
-1003.5
20
-233.50000000000009
10
-1003.5
20
-240
10
-997
20
-240
10
-997
20
-253.00000000000011
10
-1003.5
20
-253.00000000000011
10
-1003.5
20
-259.5
10
-1016.5
20
-259.5
10
-1016.5
20
-253.00000000000011
10
-1023
20
-253.00000000000011
10
-1023
20
-240
10
-1016.5
20
-240
10
-1016.5
20
-233.50000000000009
0
LWPOLYLINE
5
198
100
AcDbEntity
8
0
100
AcDbPolyline
90
12
70
1
43
0.0
10
-603.5
20
-73.500000000000085
10
-603.5
20
-80
10
-597
20
-80
10
-597
20
-93.000000000000114
10
-603.5
20
-93.000000000000114
10
-603.5
20
-99.500000000000028
10
-616.5
20
-99.500000000000028
10
-616.5
20
-93.000000000000114
10
-623
20
-93.000000000000114
10
-623
20
-80
10
-616.5
20
-80
10
-616.5
20
-73.500000000000085
0
LWPOLYLINE
5
199
100
AcDbEntity
8
0
100
AcDbPolyline
90
12
70
1
43
0.0
10
-363.5
20
-73.500000000000085
10
-363.5
20
-80
10
-357
20
-80
10
-357
20
-93.000000000000114
10
-363.5
20
-93.000000000000114
10
-363.5
20
-99.500000000000028
10
-376.5
20
-99.500000000000028
10
-376.5
20
-93.000000000000114
10
-383
20
-93.000000000000114
10
-383
20
-80
10
-376.5
20
-80
10
-376.5
20
-73.500000000000085
0
LWPOLYLINE
5
200
100
AcDbEntity
8
0
100
AcDbPolyline
90
12
70
1
43
0.0
10
-43.5
20
-73.500000000000085
10
-43.5
20
-80
10
-37.000000000000028
20
-80
10
-37.000000000000028
20
-93.000000000000114
10
-43.5
20
-93.000000000000114
10
-43.5
20
-99.500000000000028
10
-56.5
20
-99.500000000000028
10
-56.5
20
-93.000000000000114
10
-62.999999999999972
20
-93.000000000000114
10
-62.999999999999972
20
-80
10
-56.5
20
-80
10
-56.5
20
-73.500000000000085
0
SPLINE
5
201
100
AcDbEntity
8
0
100
AcDbSpline
70
0
71
3
72
9
73
5
74
0
42
0.000000001
43
0.0000000001
44
0.0000000001
40
0
40
0
40
0
40
0
40
0.10872025905638603
40
0.23902860492336114
40
0.23902860492336114
40
0.23902860492336114
40
0.23902860492336114
10
-1028.5231959819794
20
-54.835609436035213
30
0
10
-1028.6601808785163
20
-54.496971573801375
30
0
10
-1028.9613511387693
20
-53.75245407093189
30
0
10
-1028.9823929491142
20
-52.948067716196775
30
0
10
-1028.9938640594482
20
-52.509550094604549
30
0
0
LINE
5
202
100
AcDbEntity
8
0
100
AcDbLine
10
-1028.9938640594482
20
-52.509550094604556
30
0
11
-1028.9938640594482
21
-52.195772171020565
31
0
0
LINE
5
203
100
AcDbEntity
8
0
100
AcDbLine
10
-1028.9938640594482
20
-52.195772171020565
30
0
11
-1023.4276974201202
21
-52.195772171020565
31
0
0
SPLINE
5
204
100
AcDbEntity
8
0
100
AcDbSpline
70
0
71
3
72
9
73
5
74
0
42
0.000000001
43
0.0000000001
44
0.0000000001
40
0
40
0
40
0
40
0
40
0.05970787492264034
40
0.10713050772204649
40
0.10713050772204649
40
0.10713050772204649
40
0.10713050772204649
10
-1023.4276974201202
20
-52.195772171020565
30
0
10
-1023.4548868425451
20
-51.995455389927834
30
0
10
-1023.5036713057807
20
-51.636038169142218
30
0
10
-1023.7016071072582
20
-51.333701977943917
30
0
10
-1023.7892258167267
20
-51.199869155883846
30
0
0
SPLINE
5
205
100
AcDbEntity
8
0
100
AcDbSpline
70
0
71
3
72
9
73
5
74
0
42
0.000000001
43
0.0000000001
44
0.0000000001
40
0
40
0
40
0
40
0
40
0.05828934431125643
40
0.11812075558258944
40
0.11812075558258944
40
0.11812075558258944
40
0.11812075558258944
10
-1023.7892258167267
20
-51.199869155883846
30
0
10
-1023.9349866154363
20
-51.062596731088746
30
0
10
-1024.2303643706905
20
-50.784420286851102
30
0
10
-1024.6348299201611
20
-50.747767775518717
30
0
10
-1024.8397028446198
20
-50.729202270507869
30
0
0
SPLINE
5
206
100
AcDbEntity
8
0
100
AcDbSpline
70
0
71
3
72
9
73
5
74
0
42
0.000000001
43
0.0000000001
44
0.0000000001
40
0
40
0
40
0
40
0
40
0.040231027511383056
40
0.081082127094427053
40
0.081082127094427053
40
0.081082127094427053
40
0.081082127094427053
10
-1024.8397028446198
20
-50.729202270507869
30
0
10
-1024.9748852161808
20
-50.73798440074016
30
0
10
-1025.2473334957763
20
-50.755684018266805
30
0
10
-1025.4933699024657
20
-50.874153812090057
30
0
10
-1025.6173288822174
20
-50.933841705322322
30
0
0
SPLINE
5
207
100
AcDbEntity
8
0
100
AcDbSpline
70
0
71
3
72
9
73
5
74
0
42
0.000000001
43
0.0000000001
44
0.0000000001
40
0
40
0
40
0
40
0
40
0.029435036578230923
40
0.066866011263927425
40
0.066866011263927425
40
0.066866011263927425
40
0.066866011263927425
10
-1025.6173288822174
20
-50.933841705322322
30
0
10
-1025.6978828031336
20
-50.990625123677695
30
0
10
-1025.8808728724343
20
-51.119617003176984
30
0
10
-1026.0224095434583
20
-51.293515013418101
30
0
10
-1026.1016404628754
20
-51.390861511230526
30
0
0
LINE
5
208
100
AcDbEntity
8
0
100
AcDbLine
10
-1026.1016404628754
20
-51.390861511230518
30
0
11
-1028.8369739055634
21
-51.138471603393612
31
0
0
SPLINE
5
209
100
AcDbEntity
8
0
100
AcDbSpline
70
0
71
3
72
9
73
5
74
0
42
0.000000001
43
0.0000000001
44
0.0000000001
40
0
40
0
40
0
40
0
40
0.11651028695157067
40
0.21997663048124275
40
0.21997663048124275
40
0.21997663048124275
40
0.21997663048124275
10
-1028.8369739055634
20
-51.138471603393612
30
0
10
-1028.6267752147139
20
-50.805861525760605
30
0
10
-1028.2299106892331
20
-50.177878829501132
30
0
10
-1027.6128740702434
20
-49.766485896188541
30
0
10
-1027.3226499557495
20
-49.57298660278326
30
0
0
SPLINE
5
210
100
AcDbEntity
8
0
100
AcDbSpline
70
0
71
3
72
9
73
5
74
0
42
0.000000001
43
0.0000000001
44
0.0000000001
40
0
40
0
40
0
40
0
40
0.11365185899674889
40
0.26061748093998188
40
0.26061748093998188
40
0.26061748093998188
40
0.26061748093998188
10
-1027.3226499557495
20
-49.57298660278326
30
0
10
-1026.966704480466
20
-49.435285892481211
30
0
10
-1026.1504783849202
20
-49.119521482119985
30
0
10
-1025.2730849431268
20
-49.106345314276076
30
0
10
-1024.778311252594
20
-49.098915100097713
30
0
0
SPLINE
5
211
100
AcDbEntity
8
0
100
AcDbSpline
70
0
71
3
72
9
73
5
74
0
42
0.000000001
43
0.0000000001
44
0.0000000001
40
0
40
0
40
0
40
0
40
0.12898092824163312
40
0.2314899589254063
40
0.2314899589254063
40
0.2314899589254063
40
0.2314899589254063
10
-1024.778311252594
20
-49.098915100097713
30
0
10
-1024.3446761375558
20
-49.106595125055357
30
0
10
-1023.566404680393
20
-49.120378935469979
30
0
10
-1022.8367525037822
20
-49.386801729363512
30
0
10
-1022.5136458873749
20
-49.504779815673885
30
0
0
SPLINE
5
212
100
AcDbEntity
8
0
100
AcDbSpline
70
0
71
3
72
9
73
5
74
0
42
0.000000001
43
0.0000000001
44
0.0000000001
40
0
40
0
40
0
40
0
40
0.091940236096532069
40
0.18989560174152989
40
0.18989560174152989
40
0.18989560174152989
40
0.18989560174152989
10
-1022.5136458873749
20
-49.504779815673885
30
0
10
-1022.2476518460921
20
-49.664378393884903
30
0
10
-1021.6982612781147
20
-49.994017182441546
30
0
10
-1021.3339193711528
20
-50.521769661779423
30
0
10
-1021.145977973938
20
-50.794004440307674
30
0
0
SPLINE
5
213
100
AcDbEntity
8
0
100
AcDbSpline
70
0
71
3
72
9
73
5
74
0
42
0.000000001
43
0.0000000001
44
0.0000000001
40
0
40
0
40
0
40
0
40
0.10434691890523662
40
0.21678055993347517
40
0.21678055993347517
40
0.21678055993347517
40
0.21678055993347517
10
-1021.145977973938
20
-50.794004440307674
30
0
10
-1020.9878704182984
20
-51.108308239846352
30
0
10
-1020.659402220091
20
-51.761273889125299
30
0
10
-1020.622714648457
20
-52.492056651090238
30
0
10
-1020.6036865711212
20
-52.871078491210994
30
0
0
SPLINE
5
214
100
AcDbEntity
8
0
100
AcDbSpline
70
0
71
3
72
9
73
5
74
0
42
0.000000001
43
0.0000000001
44
0.0000000001
40
0
40
0
40
0
40
0
40
0.15603829425788943
40
0.30218763766349865
40
0.30218763766349865
40
0.30218763766349865
40
0.30218763766349865
10
-1020.6036865711212
20
-52.871078491210994
30
0
10
-1020.6427845217978
20
-53.404066976403556
30
0
10
-1020.7185025845246
20
-54.436265719719685
30
0
10
-1021.3744434127909
20
-55.234161661948491
30
0
10
-1021.6916811466217
20
-55.620054244995174
30
0
0
SPLINE
5
215
100
AcDbEntity
8
0
100
AcDbSpline
70
0
71
3
72
9
73
5
74
0
42
0.000000001
43
0.0000000001
44
0.0000000001
40
0
40
0
40
0
40
0
40
0.15159952508173358
40
0.32456334204434578
40
0.32456334204434578
40
0.32456334204434578
40
0.32456334204434578
10
-1021.6916811466217
20
-55.620054244995174
30
0
10
-1022.1075906856196
20
-55.926087749184532
30
0
10
-1022.9980221687822
20
-56.581282789166956
30
0
10
-1024.1060007252536
20
-56.639507417236302
30
0
10
-1024.696456193924
20
-56.670536041259822
30
0
0
SPLINE
5
216
100
AcDbEntity
8
0
100
AcDbSpline
70
0
71
3
72
9
73
5
74
0
42
0.000000001
43
0.0000000001
44
0.0000000001
40
0
40
0
40
0
40
0
40
0.13965077574830836
40
0.25176503740395928
40
0.25176503740395928
40
0.25176503740395928
40
0.25176503740395928
10
-1024.696456193924
20
-56.670536041259822
30
0
10
-1025.1664108965585
20
-56.661086452953171
30
0
10
-1026.0136540475755
20
-56.644050557944823
30
0
10
-1026.801347362637
20
-56.336725168473563
30
0
10
-1027.1521174907684
20
-56.199869155883846
30
0
0
SPLINE
5
217
100
AcDbEntity
8
0
100
AcDbSpline
70
0
71
3
72
9
73
5
74
0
42
0.000000001
43
0.0000000001
44
0.0000000001
40
0
40
0
40
0
40
0
40
0.098032855567987853
40
0.19575325551319497
40
0.19575325551319497
40
0.19575325551319497
40
0.19575325551319497
10
-1027.1521174907684
20
-56.199869155883846
30
0
10
-1027.4342217668029
20
-56.025595477472301
30
0
10
-1027.9975311808562
20
-55.677603575148709
30
0
10
-1028.3481609365931
20
-55.115975330879081
30
0
10
-1028.5231959819794
20
-54.835609436035213
30
0
0
LINE
5
218
100
AcDbEntity
8
0
100
AcDbLine
10
-1042.3635804653168
20
-49.26262283325201
30
0
11
-1039.5873177051544
21
-49.26262283325201
31
0
0
LINE
5
219
100
AcDbEntity
8
0
100
AcDbLine
10
-1039.5873177051544
20
-49.26262283325201
30
0
11
-1039.5873177051544
21
-56.506828308105526
31
0
0
LINE
5
220
100
AcDbEntity
8
0
100
AcDbLine
10
-1039.5873177051544
20
-56.506828308105526
30
0
11
-1042.1725833415985
21
-56.506828308105526
31
0
0
LINE
5
221
100
AcDbEntity
8
0
100
AcDbLine
10
-1042.1725833415985
20
-56.506828308105526
30
0
11
-1042.1725833415985
21
-55.326742172241268
31
0
0
SPLINE
5
222
100
AcDbEntity
8
0
100
AcDbSpline
70
0
71
3
72
9
73
5
74
0
42
0.000000001
43
0.0000000001
44
0.0000000001
40
0
40
0
40
0
40
0
40
0.08511154370846398
40
0.15716498900857068
40
0.15716498900857068
40
0.15716498900857068
40
0.15716498900857068
10
-1042.1725833415985
20
-55.326742172241268
30
0
10
-1042.3567240964826
20
-55.545226441356789
30
0
10
-1042.6967541142262
20
-55.948674390458812
30
0
10
-1043.1418061664467
20
-56.230820371351967
30
0
10
-1043.3458435535431
20
-56.360172271728572
30
0
0
SPLINE
5
223
100
AcDbEntity
8
0
100
AcDbSpline
70
0
71
3
72
9
73
5
74
0
42
0.000000001
43
0.0000000001
44
0.0000000001
40
0
40
0
40
0
40
0
40
0.069819935427023985
40
0.14898698033456695
40
0.14898698033456695
40
0.14898698033456695
40
0.14898698033456695
10
-1043.3458435535431
20
-56.360172271728572
30
0
10
-1043.5624044189942
20
-56.450599247508833
30
0
10
-1044.0245181291382
20
-56.643559065931584
30
0
10
-1044.5256638822902
20
-56.661175314816319
30
0
10
-1044.7919571399689
20
-56.670536041259822
30
0
0
SPLINE
5
224
100
AcDbEntity
8
0
100
AcDbSpline
70
0
71
3
72
9
73
5
74
0
42
0.000000001
43
0.0000000001
44
0.0000000001
40
0
40
0
40
0
40
0
40
0.10416496242469719
40
0.19731753106100469
40
0.19731753106100469
40
0.19731753106100469
40
0.19731753106100469
10
-1044.7919571399689
20
-56.670536041259822
30
0
10
-1045.148418862276
20
-56.648918965450449
30
0
10
-1045.8236569205071
20
-56.607970186435196
30
0
10
-1046.3484383949262
20
-56.184781804864521
30
0
10
-1046.5961849689484
20
-55.984996795654354
30
0
0
SPLINE
5
225
100
AcDbEntity
8
0
100
AcDbSpline
70
0
71
3
72
9
73
5
74
0
42
0.000000001
43
0.0000000001
44
0.0000000001
40
0
40
0
40
0
40
0
40
0.099978714161571433
40
0.22561151813458968
40
0.22561151813458968
40
0.22561151813458968
40
0.22561151813458968
10
-1046.5961849689484
20
-55.984996795654354
30
0
10
-1046.7855558767797
20
-55.703031836735292
30
0
10
-1047.2128894183704
20
-55.066750974594143
30
0
10
-1047.2351965877142
20
-54.296120269678205
30
0
10
-1047.2476184368134
20
-53.866991043090877
30
0
0
LINE
5
226
100
AcDbEntity
8
0
100
AcDbLine
10
-1047.2476184368134
20
-53.866991043090877
30
0
11
-1047.2476184368134
21
-49.26262283325201
31
0
0
LINE
5
227
100
AcDbEntity
8
0
100
AcDbLine
10
-1047.2476184368134
20
-49.26262283325201
30
0
11
-1044.4577133655548
21
-49.26262283325201
31
0
0
LINE
5
228
100
AcDbEntity
8
0
100
AcDbLine
10
-1044.4577133655548
20
-49.26262283325201
30
0
11
-1044.4577133655548
21
-53.246253967285213
31
0
0
SPLINE
5
229
100
AcDbEntity
8
0
100
AcDbSpline
70
0
71
3
72
9
73
5
74
0
42
0.000000001
43
0.0000000001
44
0.0000000001
40
0
40
0
40
0
40
0
40
0.058577870443671382
40
0.101286230339119
40
0.101286230339119
40
0.101286230339119
40
0.101286230339119
10
-1044.4577133655548
20
-53.246253967285213
30
0
10
-1044.4556256109418
20
-53.445897951102488
30
0
10
-1044.4520157017216
20
-53.791099754745701
30
0
10
-1044.2784933081155
20
-54.086787869195376
30
0
10
-1044.2053258419037
20
-54.211467742919979
30
0
0
SPLINE
5
230
100
AcDbEntity
8
0
100
AcDbSpline
70
0
71
3
72
9
73
5
74
0
42
0.000000001
43
0.0000000001
44
0.0000000001
40
0
40
0
40
0
40
0
40
0.037042578950156384
40
0.078241470627079313
40
0.078241470627079313
40
0.078241470627079313
40
0.078241470627079313
10
-1044.2053258419037
20
-54.211467742919979
30
0
10
-1044.1089860360316
20
-54.29396813153167
30
0
10
-1043.9054967460038
20
-54.468225753847008
30
0
10
-1043.6371923319466
20
-54.485467868503306
30
0
10
-1043.4959137439728
20
-54.494546890258846
30
0
0
SPLINE
5
231
100
AcDbEntity
8
0
100
AcDbSpline
70
0
71
3
72
9
73
5
74
0
42
0.000000001
43
0.0000000001
44
0.0000000001
40
0
40
0
40
0
40
0
40
0.046689640180101126
40
0.092818444393098332
40
0.092818444393098332
40
0.092818444393098332
40
0.092818444393098332
10
-1043.4959137439728
20
-54.494546890258846
30
0
10
-1043.3359336281949
20
-54.4790222485085
30
0
10
-1043.0178950778215
20
-54.448159447007555
30
0
10
-1042.7904124465244
20
-54.223970038403131
30
0
10
-1042.6773583889008
20
-54.112552642822322
30
0
0
SPLINE
5
232
100
AcDbEntity
8
0
100
AcDbSpline
70
0
71
3
72
9
73
5
74
0
42
0.000000001
43
0.0000000001
44
0.0000000001
40
0
40
0
40
0
40
0
40
0.058334711738217956
40
0.14243206658213892
40
0.14243206658213892
40
0.14243206658213892
40
0.14243206658213892
10
-1042.6773583889008
20
-54.112552642822322
30
0
10
-1042.586564266928
20
-53.937839239458611
30
0
10
-1042.3648781723068
20
-53.511252900738597
30
0
10
-1042.3640622293392
20
-53.027248759647421
30
0
10
-1042.3635804653168
20
-52.741474151611385
30
0
0
LINE
5
233
100
AcDbEntity
8
0
100
AcDbLine
10
-1042.3635804653168
20
-52.741474151611385
30
0
11
-1042.3635804653168
21
-49.26262283325201
31
0
0
LWPOLYLINE
5
234
100
AcDbEntity
8
0
100
AcDbPolyline
90
4
70
1
43
0.0
10
-1051.7837679386139
20
-49.26262283325201
10
-1049.0075051784515
20
-49.26262283325201
10
-1049.0075051784515
20
-56.506828308105526
10
-1051.7837679386139
20
-56.506828308105526
0
LWPOLYLINE
5
235
100
AcDbEntity
8
0
100
AcDbPolyline
90
12
70
1
43
0.0
10
-1064.9283802509308
20
-49.26262283325201
10
-1062.0907270908356
20
-49.26262283325201
10
-1062.0907270908356
20
-59.26262283325201
10
-1064.9283802509308
20
-59.26262283325201
10
-1064.9283802509308
20
-54.10083198547369
10
-1067.0020496845245
20
-56.506828308105526
10
-1070.4195129871368
20
-56.506828308105526
10
-1067.8207123279572
20
-53.969196319580135
10
-1070.5695831775665
20
-49.26262283325201
10
-1067.4414885044098
20
-49.26262283325201
10
-1065.9742748737335
20
-52.166570663452205
10
-1064.9283802509308
20
-51.14529991149908
0
SPLINE
5
236
100
AcDbEntity
8
0
100
AcDbSpline
70
0
71
3
72
9
73
5
74
0
42
0.000000001
43
0.0000000001
44
0.0000000001
40
0
40
0
40
0
40
0
40
0.042101115583232582
40
0.096571618124413339
40
0.096571618124413339
40
0.096571618124413339
40
0.096571618124413339
10
-1089.1932260990143
20
-48.457979202270565
30
0
10
-1089.2938604251667
20
-48.557908453872059
30
0
10
-1089.524695631806
20
-48.787126359180029
30
0
10
-1089.6417364587517
20
-49.091961029529131
30
0
10
-1089.7077524662018
20
-49.263900756835994
30
0
0
LINE
5
237
100
AcDbEntity
8
0
100
AcDbLine
10
-1089.7077524662018
20
-49.263900756835994
30
0
11
-1086.6678059101105
21
-56.506828308105526
31
0
0
LINE
5
238
100
AcDbEntity
8
0
100
AcDbLine
10
-1086.6678059101105
20
-56.506828308105526
30
0
11
-1089.5972263813019
21
-56.506828308105526
31
0
0
LINE
5
239
100
AcDbEntity
8
0
100
AcDbLine
10
-1089.5972263813019
20
-56.506828308105526
30
0
11
-1091.0914099216461
21
-51.684173583984432
31
0
0
LINE
5
240
100
AcDbEntity
8
0
100
AcDbLine
10
-1091.0914099216461
20
-51.684173583984432
30
0
11
-1092.4791204929352
21
-56.506828308105526
31
0
0
LINE
5
241
100
AcDbEntity
8
0
100
AcDbLine
10
-1092.4791204929352
20
-56.506828308105526
30
0
11
-1095.2148687839508
21
-56.506828308105526
31
0
0
LINE
5
242
100
AcDbEntity
8
0
100
AcDbLine
10
-1095.2148687839508
20
-56.506828308105526
30
0
11
-1092.340761423111
21
-48.766483306884822
31
0
0
SPLINE
5
243
100
AcDbEntity
8
0
100
AcDbSpline
70
0
71
3
72
9
73
5
74
0
42
0.000000001
43
0.0000000001
44
0.0000000001
40
0
40
0
40
0
40
0
40
0.12151183349132265
40
0.20622327681544478
40
0.20622327681544478
40
0.20622327681544478
40
0.20622327681544478
10
-1092.340761423111
20
-48.766483306884822
30
0
10
-1092.1980239047666
20
-48.383467832029261
30
0
10
-1091.9557775497269
20
-47.73343479387762
30
0
10
-1091.518210540999
20
-47.197980633295877
30
0
10
-1091.3384687900543
20
-46.97802925109869
30
0
0
SPLINE
5
244
100
AcDbEntity
8
0
100
AcDbSpline
70
0
71
3
72
9
73
5
74
0
42
0.000000001
43
0.0000000001
44
0.0000000001
40
0
40
0
40
0
40
0
40
0.10359740903379439
40
0.2336712653521705
40
0.2336712653521705
40
0.2336712653521705
40
0.2336712653521705
10
-1091.3384687900543
20
-46.97802925109869
30
0
10
-1091.0430434950802
20
-46.787507035826934
30
0
10
-1090.3766908986445
20
-46.357770737057855
30
0
10
-1089.5797618126671
20
-46.335212075269219
30
0
10
-1089.1361486911774
20
-46.322654724121151
30
0
0
SPLINE
5
245
100
AcDbEntity
8
0
100
AcDbSpline
70
0
71
3
72
9
73
5
74
0
42
0.000000001
43
0.0000000001
44
0.0000000001
40
0
40
0
40
0
40
0
40
0.076477945583014934
40
0.18626220529308446
40
0.18626220529308446
40
0.18626220529308446
40
0.18626220529308446
10
-1089.1361486911774
20
-46.322654724121151
30
0
10
-1088.881334290591
20
-46.333246784829583
30
0
10
-1088.260733255458
20
-46.359043772067125
30
0
10
-1087.6446395943092
20
-46.439148289044461
30
0
10
-1087.2815096378326
20
-46.486362457275447
30
0
0
LINE
5
246
100
AcDbEntity
8
0
100
AcDbLine
10
-1087.2815096378326
20
-46.486362457275447
30
0
11
-1087.0634424686432
21
-48.423608779907283
31
0
0
SPLINE
5
247
100
AcDbEntity
8
0
100
AcDbSpline
70
0
71
3
72
9
73
5
74
0
42
0.000000001
43
0.0000000001
44
0.0000000001
40
0
40
0
40
0
40
0
40
0.064980351062354724
40
0.13534062803468505
40
0.13534062803468505
40
0.13534062803468505
40
0.13534062803468505
10
-1087.0634424686432
20
-48.423608779907283
30
0
10
-1087.2735553158066
20
-48.367924084013794
30
0
10
-1087.7111769080009
20
-48.251944382597358
30
0
10
-1088.16388692899
20
-48.239221304456095
30
0
10
-1088.3992397785187
20
-48.23260688781744
30
0
0
SPLINE
5
248
100
AcDbEntity
8
0
100
AcDbSpline
70
0
71
3
72
9
73
5
74
0
42
0.000000001
43
0.0000000001
44
0.0000000001
40
0
40
0
40
0
40
0
40
0.044740668832480034
40
0.083621251426622245
40
0.083621251426622245
40
0.083621251426622245
40
0.083621251426622245
10
-1088.3992397785187
20
-48.23260688781744
30
0
10
-1088.5508378951195
20
-48.239067536880199
30
0
10
-1088.834177964789
20
-48.251142625915584
30
0
10
-1089.0792686162581
20
-48.392331804786721
30
0
10
-1089.1932260990143
20
-48.457979202270565
30
0
0
LINE
5
249
100
AcDbEntity
8
0
100
AcDbLine
10
-1098.6118757724762
20
-49.26262283325201
30
0
11
-1096.0129606723785
21
-49.26262283325201
31
0
0
LINE
5
250
100
AcDbEntity
8
0
100
AcDbLine
10
-1096.0129606723785
20
-49.26262283325201
30
0
11
-1096.0129606723785
21
-59.26262283325201
31
0
0
LINE
5
251
100
AcDbEntity
8
0
100
AcDbLine
10
-1096.0129606723785
20
-59.26262283325201
30
0
11
-1098.8165152072906
21
-59.26262283325201
31
0
0
LINE
5
252
100
AcDbEntity
8
0
100
AcDbLine
10
-1098.8165152072906
20
-59.26262283325201
30
0
11
-1098.8165152072906
21
-55.797409057617244
31
0
0
SPLINE
5
253
100
AcDbEntity
8
0
100
AcDbSpline
70
0
71
3
72
9
73
5
74
0
42
0.000000001
43
0.0000000001
44
0.0000000001
40
0
40
0
40
0
40
0
40
0.058587842610277115
40
0.11559421313985614
40
0.11559421313985614
40
0.11559421313985614
40
0.11559421313985614
10
-1098.8165152072906
20
-55.797409057617244
30
0
10
-1098.9586646151733
20
-55.933315536505944
30
0
10
-1099.2391263666289
20
-56.201459946469114
30
0
10
-1099.5888122557049
20
-56.369425349589633
30
0
10
-1099.7612631320953
20
-56.45225906372076
30
0
0
SPLINE
5
254
100
AcDbEntity
8
0
100
AcDbSpline
70
0
71
3
72
9
73
5
74
0
42
0.000000001
43
0.0000000001
44
0.0000000001
40
0
40
0
40
0
40
0
40
0.05803518621653584
40
0.11958452060137695
40
0.11958452060137695
40
0.11958452060137695
40
0.11958452060137695
10
-1099.7612631320953
20
-56.45225906372076
30
0
10
-1099.9451362456871
20
-56.515907922733021
30
0
10
-1100.3240163626267
20
-56.64705970819309
30
0
10
-1100.7248236002417
20
-56.66255877674368
30
0
10
-1100.9311163425446
20
-56.670536041259822
30
0
0
SPLINE
5
255
100
AcDbEntity
8
0
100
AcDbSpline
70
0
71
3
72
9
73
5
74
0
42
0.000000001
43
0.0000000001
44
0.0000000001
40
0
40
0
40
0
40
0
40
0.12322480252011993
40
0.2445021009170158
40
0.2445021009170158
40
0.2445021009170158
40
0.2445021009170158
10
-1100.9311163425446
20
-56.670536041259822
30
0
10
-1101.3520114667658
20
-56.632169472264934
30
0
10
-1102.1871496859649
20
-56.556042698008646
30
0
10
-1102.8111957755648
20
-55.996508197723891
30
0
10
-1103.120733499527
20
-55.71896934509283
30
0
0
SPLINE
5
256
100
AcDbEntity
8
0
100
AcDbSpline
70
0
71
3
72
9
73
5
74
0
42
0.000000001
43
0.0000000001
44
0.0000000001
40
0
40
0
40
0
40
0
40
0.13284913231870676
40
0.29164918203523138
40
0.29164918203523138
40
0.29164918203523138
40
0.29164918203523138
10
-1103.120733499527
20
-55.71896934509283
30
0
10
-1103.3728846296835
20
-55.344658507198346
30
0
10
-1103.9264424104219
20
-54.522918479292457
30
0
10
-1103.9656843866942
20
-53.528497513841543
30
0
10
-1103.9870512485504
20
-52.987045288085994
30
0
0
SPLINE
5
257
100
AcDbEntity
8
0
100
AcDbSpline
70
0
71
3
72
9
73
5
74
0
42
0.000000001
43
0.0000000001
44
0.0000000001
40
0
40
0
40
0
40
0
40
0.11205072431082914
40
0.21392657972888662
40
0.21392657972888662
40
0.21392657972888662
40
0.21392657972888662
10
-1103.9870512485504
20
-52.987045288085994
30
0
10
-1103.9739349343326
20
-52.611141896391551
30
0
10
-1103.9488933448517
20
-51.893469365595521
30
0
10
-1103.7067317985022
20
-51.217996854702136
30
0
10
-1103.5914099216461
20
-50.896324157714901
30
0
0
SPLINE
5
258
100
AcDbEntity
8
0
100
AcDbSpline
70
0
71
3
72
9
73
5
74
0
42
0.000000001
43
0.0000000001
44
0.0000000001
40
0
40
0
40
0
40
0
40
0.091965515188439831
40
0.17582655236209413
40
0.17582655236209413
40
0.17582655236209413
40
0.17582655236209413
10
-1103.5914099216461
20
-50.896324157714901
30
0
10
-1103.4527161804042
20
-50.617937052950367
30
0
10
-1103.1875511094881
20
-50.085695758455145
30
0
10
-1102.7197236237789
20
-49.720082428882542
30
0
10
-1102.4965918064117
20
-49.545701980590877
30
0
0
SPLINE
5
259
100
AcDbEntity
8
0
100
AcDbSpline
70
0
71
3
72
9
73
5
74
0
42
0.000000001
43
0.0000000001
44
0.0000000001
40
0
40
0
40
0
40
0
40
0.081010549581575997
40
0.16320155512170234
40
0.16320155512170234
40
0.16320155512170234
40
0.16320155512170234
10
-1102.4965918064117
20
-49.545701980590877
30
0
10
-1102.256121522234
20
-49.41538988798861
30
0
10
-1101.7716769092656
20
-49.152866842858067
30
0
10
-1101.2217208587717
20
-49.116985525607589
30
0
10
-1100.9447538852692
20
-49.098915100097713
30
0
0
SPLINE
5
260
100
AcDbEntity
8
0
100
AcDbSpline
70
0
71
3
72
9
73
5
74
0
42
0.000000001
43
0.0000000001
44
0.0000000001
40
0
40
0
40
0
40
0
40
0.070357359379106324
40
0.13833927634152043
40
0.13833927634152043
40
0.13833927634152043
40
0.13833927634152043
10
-1100.9447538852692
20
-49.098915100097713
30
0
10
-1100.7083764969802
20
-49.11107007172896
30
0
10
-1100.2436024189317
20
-49.134969632404051
30
0
10
-1099.8172798505666
20
-49.321184399569873
30
0
10
-1099.6077787876129
20
-49.412693023681697
30
0
0
SPLINE
5
261
100
AcDbEntity
8
0
100
AcDbSpline
70
0
71
3
72
9
73
5
74
0
42
0.000000001
43
0.0000000001
44
0.0000000001
40
0
40
0
40
0
40
0
40
0.059379846626671361
40
0.13627187931750379
40
0.13627187931750379
40
0.13627187931750379
40
0.13627187931750379
10
-1099.6077787876129
20
-49.412693023681697
30
0
10
-1099.4430148119527
20
-49.524144488376848
30
0
10
-1099.0648949971917
20
-49.779916461689311
30
0
10
-1098.7752879031141
20
-50.133851484336454
30
0
10
-1098.6118757724762
20
-50.333560943603572
30
0
0
LINE
5
262
100
AcDbEntity
8
0
100
AcDbLine
10
-1098.6118757724762
20
-50.333560943603572
30
0
11
-1098.6118757724762
21
-49.26262283325201
31
0
0
LINE
5
263
100
AcDbEntity
8
0
100
AcDbLine
10
-1117.4522459506989
20
-49.26262283325201
30
0
11
-1114.6623480319977
21
-49.26262283325201
31
0
0
LINE
5
264
100
AcDbEntity
8
0
100
AcDbLine
10
-1114.6623480319977
20
-49.26262283325201
30
0
11
-1114.6623480319977
21
-56.506828308105526
31
0
0
LINE
5
265
100
AcDbEntity
8
0
100
AcDbLine
10
-1114.6623480319977
20
-56.506828308105526
30
0
11
-1117.261244058609
21
-56.506828308105526
31
0
0
LINE
5
266
100
AcDbEntity
8
0
100
AcDbLine
10
-1117.261244058609
20
-56.506828308105526
30
0
11
-1117.261244058609
21
-55.319923400878963
31
0
0
SPLINE
5
267
100
AcDbEntity
8
0
100
AcDbSpline
70
0
71
3
72
9
73
5
74
0
42
0.000000001
43
0.0000000001
44
0.0000000001
40
0
40
0
40
0
40
0
40
0.075401288185910686
40
0.13220912680086647
40
0.13220912680086647
40
0.13220912680086647
40
0.13220912680086647
10
-1117.261244058609
20
-55.319923400878963
30
0
10
-1117.3749282276365
20
-55.546883776230459
30
0
10
-1117.5742628156761
20
-55.944837627756634
30
0
10
-1117.8968606422418
20
-56.249654403890581
30
0
10
-1118.0354750156403
20
-56.380628585815487
30
0
0
SPLINE
5
268
100
AcDbEntity
8
0
100
AcDbSpline
70
0
71
3
72
9
73
5
74
0
42
0.000000001
43
0.0000000001
44
0.0000000001
40
0
40
0
40
0
40
0
40
0.049612077525134503
40
0.10406880864927059
40
0.10406880864927059
40
0.10406880864927059
40
0.10406880864927059
10
-1118.0354750156403
20
-56.380628585815487
30
0
10
-1118.1804845387853
20
-56.46513374359138
30
0
10
-1118.4846638650563
20
-56.642396046102341
30
0
10
-1118.8368466814252
20
-56.660869383430956
30
0
10
-1119.0211355686188
20
-56.670536041259822
30
0
0
SPLINE
5
269
100
AcDbEntity
8
0
100
AcDbSpline
70
0
71
3
72
9
73
5
74
0
42
0.000000001
43
0.0000000001
44
0.0000000001
40
0
40
0
40
0
40
0
40
0.064996298514549994
40
0.14071521539573895
40
0.14071521539573895
40
0.14071521539573895
40
0.14071521539573895
10
-1119.0211355686188
20
-56.670536041259822
30
0
10
-1119.2386160559511
20
-56.650286897014404
30
0
10
-1119.7094553855552
20
-56.606448051431002
30
0
10
-1120.1356197498335
20
-56.399760469189189
30
0
10
-1120.3649389743805
20
-56.288541793823299
30
0
0
LINE
5
270
100
AcDbEntity
8
0
100
AcDbLine
10
-1120.3649389743805
20
-56.288541793823292
30
0
11
-1119.5054495334625
21
-54.310373306274471
31
0
0
SPLINE
5
271
100
AcDbEntity
8
0
100
AcDbSpline
70
0
71
3
72
9
73
5
74
0
42
0.000000001
43
0.0000000001
44
0.0000000001
40
0
40
0
40
0
40
0
40
0.046597143802317172
40
0.08074823747783022
40
0.08074823747783022
40
0.08074823747783022
40
0.08074823747783022
10
-1119.5054495334625
20
-54.310373306274471
30
0
10
-1119.3607888146948
20
-54.36958351720957
30
0
10
-1119.1101061092841
20
-54.472188951439264
30
0
10
-1118.8414479113455
20
-54.502284388041211
30
0
10
-1118.7278234958649
20
-54.515012741088924
30
0
0
SPLINE
5
272
100
AcDbEntity
8
0
100
AcDbSpline
70
0
71
3
72
9
73
5
74
0
42
0.000000001
43
0.0000000001
44
0.0000000001
40
0
40
0
40
0
40
0
40
0.049721109851260575
40
0.099189853337356498
40
0.099189853337356498
40
0.099189853337356498
40
0.099189853337356498
10
-1118.7278234958649
20
-54.515012741088924
30
0
10
-1118.5562854059576
20
-54.496445607728589
30
0
10
-1118.2140798914274
20
-54.459405581059492
30
0
10
-1117.9924991570649
20
-54.196113344178315
30
0
10
-1117.8819906711578
20
-54.064802169799862
30
0
0
SPLINE
5
273
100
AcDbEntity
8
0
100
AcDbSpline
70
0
71
3
72
9
73
5
74
0
42
0.000000001
43
0.0000000001
44
0.0000000001
40
0
40
0
40
0
40
0
40
0.096598955203887532
40
0.2433094252931938
40
0.2433094252931938
40
0.2433094252931938
40
0.2433094252931938
10
-1117.8819906711578
20
-54.064802169799862
30
0
10
-1117.7579102366324
20
-53.764748357176714
30
0
10
-1117.4453816057498
20
-53.008985310337593
30
0
10
-1117.4496638483849
20
-52.186776515770049
30
0
10
-1117.4522459506989
20
-51.691001892089901
30
0
0
LINE
5
274
100
AcDbEntity
8
0
100
AcDbLine
10
-1117.4522459506989
20
-51.691001892089901
30
0
11
-1117.4522459506989
21
-49.26262283325201
31
0
0
SPLINE
5
275
100
AcDbEntity
8
0
100
AcDbSpline
70
0
71
3
72
9
73
5
74
0
42
0.000000001
43
0.0000000001
44
0.0000000001
40
0
40
0
40
0
40
0
40
0.10872029776223975
40
0.23902870821781358
40
0.23902870821781358
40
0.23902870821781358
40
0.23902870821781358
10
-1138.4208738803864
20
-54.835609436035213
30
0
10
-1138.5578588118394
20
-54.496971562024768
30
0
10
-1138.859029171786
20
-53.752453976584
30
0
10
-1138.8800762950582
20
-52.948067700935454
30
0
10
-1138.8915503025055
20
-52.509550094604549
30
0
0
LINE
5
276
100
AcDbEntity
8
0
100
AcDbLine
10
-1138.8915503025055
20
-52.509550094604549
30
0
11
-1138.8915503025055
21
-52.195772171020565
31
0
0
LINE
5
277
100
AcDbEntity
8
0
100
AcDbLine
10
-1138.8915503025055
20
-52.195772171020565
30
0
11
-1133.3253729343414
21
-52.195772171020565
31
0
0
SPLINE
5
278
100
AcDbEntity
8
0
100
AcDbSpline
70
0
71
3
72
9
73
5
74
0
42
0.000000001
43
0.0000000001
44
0.0000000001
40
0
40
0
40
0
40
0
40
0.05970805367646375
40
0.10713074520502847
40
0.10713074520502847
40
0.10713074520502847
40
0.10713074520502847
10
-1133.3253729343414
20
-52.195772171020565
30
0
10
-1133.3525657140647
20
-51.99545547005858
30
0
10
-1133.4013561632009
20
-51.636038672328851
30
0
10
-1133.5992921582547
20
-51.333702041581404
30
0
10
-1133.686910867691
20
-51.199869155883846
30
0
0
SPLINE
5
279
100
AcDbEntity
8
0
100
AcDbSpline
70
0
71
3
72
9
73
5
74
0
42
0.000000001
43
0.0000000001
44
0.0000000001
40
0
40
0
40
0
40
0
40
0.058289439174028929
40
0.11812026603875231
40
0.11812026603875231
40
0.11812026603875231
40
0.11812026603875231
10
-1133.686910867691
20
-51.199869155883846
30
0
10
-1133.8326720526743
20
-51.062596725364045
30
0
10
-1134.1280488858079
20
-50.784421875124472
30
0
10
-1134.5325123905095
20
-50.747768240232759
30
0
10
-1134.7373831272125
20
-50.729202270507869
30
0
0
SPLINE
5
280
100
AcDbEntity
8
0
100
AcDbSpline
70
0
71
3
72
9
73
5
74
0
42
0.000000001
43
0.0000000001
44
0.0000000001
40
0
40
0
40
0
40
0
40
0.0402311457530624
40
0.081082134860754412
40
0.081082134860754412
40
0.081082134860754412
40
0.081082134860754412
10
-1134.7373831272125
20
-50.729202270507869
30
0
10
-1134.8725659239697
20
-50.737984306685071
30
0
10
-1135.145014285863
20
-50.755683684327494
30
0
10
-1135.3910505858953
20
-50.874153811350276
30
0
10
-1135.5150091648102
20
-50.933841705322322
30
0
0
SPLINE
5
281
100
AcDbEntity
8
0
100
AcDbSpline
70
0
71
3
72
9
73
5
74
0
42
0.000000001
43
0.0000000001
44
0.0000000001
40
0
40
0
40
0
40
0
40
0.029435225813734655
40
0.06686620049943115
40
0.06686620049943115
40
0.06686620049943115
40
0.06686620049943115
10
-1135.5150091648102
20
-50.933841705322322
30
0
10
-1135.5955639720319
20
-50.990625010134693
30
0
10
-1135.7785553961498
20
-51.119616167485788
30
0
10
-1135.920092302649
20
-51.293514890123092
30
0
10
-1135.9993231296539
20
-51.390861511230526
30
0
0
LINE
5
282
100
AcDbEntity
8
0
100
AcDbLine
10
-1135.9993231296537
20
-51.390861511230526
30
0
11
-1138.7346518039703
21
-51.138471603393612
31
0
0
SPLINE
5
283
100
AcDbEntity
8
0
100
AcDbSpline
70
0
71
3
72
9
73
5
74
0
42
0.000000001
43
0.0000000001
44
0.0000000001
40
0
40
0
40
0
40
0
40
0.11651014527189282
40
0.21997639409862951
40
0.21997639409862951
40
0.21997639409862951
40
0.21997639409862951
10
-1138.7346518039703
20
-51.138471603393612
30
0
10
-1138.5244539723315
20
-50.805861509840042
30
0
10
-1138.1275910129439
20
-50.177878694695721
30
0
10
-1137.510555208182
20
-49.766485874026785
30
0
10
-1137.2203314304352
20
-49.57298660278326
30
0
0
SPLINE
5
284
100
AcDbEntity
8
0
100
AcDbSpline
70
0
71
3
72
9
73
5
74
0
42
0.000000001
43
0.0000000001
44
0.0000000001
40
0
40
0
40
0
40
0
40
0.11365140609549985
40
0.26061821624935955
40
0.26061821624935955
40
0.26061821624935955
40
0.26061821624935955
10
-1137.2203314304352
20
-49.57298660278326
30
0
10
-1136.8643875410432
20
-49.43528594263762
30
0
10
-1136.0481595265808
20
-49.11951949806447
30
0
10
-1135.1707633894532
20
-49.106344623873497
30
0
10
-1134.6759855747223
20
-49.098915100097713
30
0
0
SPLINE
5
285
100
AcDbEntity
8
0
100
AcDbSpline
70
0
71
3
72
9
73
5
74
0
42
0.000000001
43
0.0000000001
44
0.0000000001
40
0
40
0
40
0
40
0
40
0.12897985868333764
40
0.23148866170240431
40
0.23148866170240431
40
0.23148866170240431
40
0.23148866170240431
10
-1134.6759855747223
20
-49.098915100097713
30
0
10
-1134.2423540728132
20
-49.106595411285134
30
0
10
-1133.4640870079115
20
-49.120379772474472
30
0
10
-1132.7344391288907
20
-49.386801709637318
30
0
10
-1132.411333322525
20
-49.504779815673885
30
0
0
SPLINE
5
286
100
AcDbEntity
8
0
100
AcDbSpline
70
0
71
3
72
9
73
5
74
0
42
0.000000001
43
0.0000000001
44
0.0000000001
40
0
40
0
40
0
40
0
40
0.091941018831374163
40
0.18989675751917937
40
0.18989675751917937
40
0.18989675751917937
40
0.18989675751917937
10
-1132.411333322525
20
-49.504779815673885
30
0
10
-1132.145335967592
20
-49.664378084053084
30
0
10
-1131.5959398889704
20
-49.994015432606638
30
0
10
-1131.2315932974288
20
-50.521769475441744
30
0
10
-1131.0436499118805
20
-50.794004440307674
30
0
0
SPLINE
5
287
100
AcDbEntity
8
0
100
AcDbSpline
70
0
71
3
72
9
73
5
74
0
42
0.000000001
43
0.0000000001
44
0.0000000001
40
0
40
0
40
0
40
0
40
0.1043463613358727
40
0.21678001673850011
40
0.21678001673850011
40
0.21678001673850011
40
0.21678001673850011
10
-1131.0436499118805
20
-50.794004440307674
30
0
10
-1130.8855483697082
20
-51.108308711568284
30
0
10
-1130.5570917324123
20
-51.761277193770908
30
0
10
-1130.5204012560698
20
-52.492057122413541
30
0
10
-1130.5013716220856
20
-52.871078491210994
30
0
0
SPLINE
5
288
100
AcDbEntity
8
0
100
AcDbSpline
70
0
71
3
72
9
73
5
74
0
42
0.000000001
43
0.0000000001
44
0.0000000001
40
0
40
0
40
0
40
0
40
0.15603810724142225
40
0.30218778343860464
40
0.30218778343860464
40
0.30218778343860464
40
0.30218778343860464
10
-1130.5013716220856
20
-52.871078491210994
30
0
10
-1130.5404648727613
20
-53.404067328604334
30
0
10
-1130.6161739606116
20
-54.436268489056872
30
0
10
-1131.2721204082857
20
-55.234162097910797
30
0
10
-1131.5893614292145
20
-55.620054244995174
30
0
0
SPLINE
5
289
100
AcDbEntity
8
0
100
AcDbSpline
70
0
71
3
72
9
73
5
74
0
42
0.000000001
43
0.0000000001
44
0.0000000001
40
0
40
0
40
0
40
0
40
0.1515998306213367
40
0.3245637654110754
40
0.3245637654110754
40
0.3245637654110754
40
0.3245637654110754
10
-1131.5893614292145
20
-55.620054244995174
30
0
10
-1132.0052721904885
20
-55.926087756144334
30
0
10
-1132.895705657339
20
-56.581282345171573
30
0
10
-1134.0036854730974
20
-56.639507275497181
30
0
10
-1134.5941412448883
20
-56.670536041259822
30
0
0
SPLINE
5
290
100
AcDbEntity
8
0
100
AcDbSpline
70
0
71
3
72
9
73
5
74
0
42
0.000000001
43
0.0000000001
44
0.0000000001
40
0
40
0
40
0
40
0
40
0.13965101331910351
40
0.25176436980638661
40
0.25176436980638661
40
0.25176436980638661
40
0.25176436980638661
10
-1134.5941412448883
20
-56.670536041259822
30
0
10
-1135.0640968896639
20
-56.661086979893227
30
0
10
-1135.9113380512692
20
-56.644052109012719
30
0
10
-1136.6990284580133
20
-56.336725132964247
30
0
10
-1137.0497953891754
20
-56.199869155883846
30
0
0
SPLINE
5
291
100
AcDbEntity
8
0
100
AcDbSpline
70
0
71
3
72
9
73
5
74
0
42
0.000000001
43
0.0000000001
44
0.0000000001
40
0
40
0
40
0
40
0
40
0.098031891304458788
40
0.19575299648625771
40
0.19575299648625771
40
0.19575299648625771
40
0.19575299648625771
10
-1137.0497953891754
20
-56.199869155883846
30
0
10
-1137.3318943725337
20
-56.025594200463814
30
0
10
-1137.8951980134539
20
-55.677596785724276
30
0
10
-1138.2458341532279
20
-55.115974667219305
30
0
10
-1138.4208738803864
20
-54.835609436035213
30
0
0
LWPOLYLINE
5
292
100
AcDbEntity
8
0
100
AcDbPolyline
90
4
70
1
43
0.0
10
-1149.2462408542633
20
-57.373126983642635
10
-1146.4699804782867
20
-57.373126983642635
10
-1146.4699804782867
20
-59.26262283325201
10
-1149.2462408542633
20
-59.26262283325201
0
LWPOLYLINE
5
293
100
AcDbEntity
8
0
100
AcDbPolyline
90
12
70
1
43
0.0
10
-1153.8574469089508
20
-49.26262283325201
10
-1151.019788980484
20
-49.26262283325201
10
-1151.019788980484
20
-59.26262283325201
10
-1153.8574469089508
20
-59.26262283325201
10
-1153.8574469089508
20
-54.10083198547369
10
-1155.9311163425446
20
-56.506828308105526
10
-1159.3485701084137
20
-56.506828308105526
10
-1156.749769449234
20
-53.969196319580135
10
-1159.4986402988434
20
-49.26262283325201
10
-1156.3705503940582
20
-49.26262283325201
10
-1154.9033415317535
20
-52.166570663452205
10
-1153.8574469089508
20
-51.14529991149908
0
LWPOLYLINE
5
294
100
AcDbEntity
8
0
100
AcDbPolyline
90
8
70
1
43
0.0
10
-1067.796722650528
20
-94.092091560363826
10
-1058.3424246311188
20
-94.092091560363826
10
-1058.3424246311188
20
-101.50000476837164
10
-1086.5211451053619
20
-101.50000476837164
10
-1086.5211451053619
20
-94.092091560363826
10
-1077.0668470859528
20
-94.092091560363826
10
-1077.0668470859528
20
-71.500004768371639
10
-1067.796722650528
20
-71.500004768371639
0
LWPOLYLINE
5
295
100
AcDbEntity
8
0
100
AcDbPolyline
90
10
70
1
43
0.0
10
-1099.4952213764191
20
-71.500004768371639
10
-1090.7776272296906
20
-71.500004768371639
10
-1090.7776272296906
20
-101.50000476837164
10
-1099.433833360672
20
-101.50000476837164
10
-1110.7298862934113
20
-84.902543067932186
10
-1110.7298862934113
20
-101.50000476837164
10
-1119.4679462909698
20
-101.50000476837164
10
-1119.4679462909698
20
-71.500004768371639
10
-1110.7298862934113
20
-71.500004768371639
10
-1099.4952213764191
20
-87.972125053405819
0
SPLINE
5
296
100
AcDbEntity
8
0
100
AcDbSpline
70
0
71
3
72
9
73
5
74
0
42
0.000000001
43
0.0000000001
44
0.0000000001
40
0
40
0
40
0
40
0
40
0.19345310076939085
40
0.41712497075568089
40
0.41712497075568089
40
0.41712497075568089
40
0.41712497075568089
10
-1143.7892162799835
20
-79.346770286560115
30
0
10
-1144.1855773724549
20
-79.873799085806695
30
0
10
-1145.0402140179685
20
-81.010182382837399
30
0
10
-1145.1117253723689
20
-82.436188136729584
30
0
10
-1145.1500713825226
20
-83.200844764709529
30
0
0
LINE
5
297
100
AcDbEntity
8
0
100
AcDbLine
10
-1145.1500713825226
20
-83.200844764709529
30
0
11
-1145.1500713825226
21
-101.50000476837164
31
0
0
LINE
5
298
100
AcDbEntity
8
0
100
AcDbLine
10
-1145.1500713825226
20
-101.50000476837164
30
0
11
-1154.3997204303741
21
-101.50000476837164
31
0
0
LINE
5
299
100
AcDbEntity
8
0
100
AcDbLine
10
-1154.3997204303741
20
-101.50000476837164
30
0
11
-1154.3997204303741
21
-83.626431465148983
31
0
0
SPLINE
5
300
100
AcDbEntity
8
0
100
AcDbSpline
70
0
71
3
72
9
73
5
74
0
42
0.000000001
43
0.0000000001
44
0.0000000001
40
0
40
0
40
0
40
0
40
0.25925688726348639
40
0.51066952408673616
40
0.51066952408673616
40
0.51066952408673616
40
0.51066952408673616
10
-1154.3997204303741
20
-83.626431465148983
30
0
10
-1154.367359312952
20
-82.758897508471165
30
0
10
-1154.303616217803
20
-81.050078284951397
30
0
10
-1153.8126510819327
20
-79.412360625549923
30
0
10
-1153.5709393024445
20
-78.606080055236873
30
0
0
SPLINE
5
301
100
AcDbEntity
8
0
100
AcDbSpline
70
0
71
3
72
9
73
5
74
0
42
0.000000001
43
0.0000000001
44
0.0000000001
40
0
40
0
40
0
40
0
40
0.24562074202643069
40
0.49121117999956299
40
0.49121117999956299
40
0.49121117999956299
40
0.49121117999956299
10
-1153.5709393024445
20
-78.606080055236873
30
0
10
-1153.2554788624757
20
-77.843479069218674
30
0
10
-1152.6245969032336
20
-76.318371184923961
30
0
10
-1151.5228591129837
20
-75.089496259230032
30
0
10
-1150.9720242023468
20
-74.47509670257574
30
0
0
SPLINE
5
302
100
AcDbEntity
8
0
100
AcDbSpline
70
0
71
3
72
9
73
5
74
0
42
0.000000001
43
0.0000000001
44
0.0000000001
40
0
40
0
40
0
40
0
40
0.23571466222466611
40
0.4495026791669281
40
0.4495026791669281
40
0.4495026791669281
40
0.4495026791669281
10
-1150.9720242023468
20
-74.47509670257574
30
0
10
-1150.3921279168949
20
-73.93595484356409
30
0
10
-1149.2862784483489
20
-72.907823170338816
30
0
10
-1147.911637389537
20
-72.286165305740866
30
0
10
-1147.257844209671
20
-71.990498542785701
30
0
0
SPLINE
5
303
100
AcDbEntity
8
0
100
AcDbSpline
70
0
71
3
72
9
73
5
74
0
42
0.000000001
43
0.0000000001
44
0.0000000001
40
0
40
0
40
0
40
0
40
0.3065920241196412
40
0.65895086325675967
40
0.65895086325675967
40
0.65895086325675967
40
0.65895086325675967
10
-1147.257844209671
20
-71.990498542785701
30
0
10
-1146.2737053170717
20
-71.698597132383838
30
0
10
-1144.1585192658208
20
-71.071220451850508
30
0
10
-1141.9511427915099
20
-71.017260191292706
30
0
10
-1140.7707989215851
20
-70.988406181335506
30
0
0
SPLINE
5
304
100
AcDbEntity
8
0
100
AcDbSpline
70
0
71
3
72
9
73
5
74
0
42
0.000000001
43
0.0000000001
44
0.0000000001
40
0
40
0
40
0
40
0
40
0.22906751541551379
40
0.47902065334159649
40
0.47902065334159649
40
0.47902065334159649
40
0.47902065334159649
10
-1140.7707989215851
20
-70.988406181335506
30
0
10
-1140.0069959325165
20
-71.003281419660595
30
0
10
-1138.4097489104574
20
-71.034388171607361
30
0
10
-1136.8213284062076
20
-71.205774017124781
30
0
10
-1135.9924900531769
20
-71.295203208923397
30
0
0
SPLINE
5
305
100
AcDbEntity
8
0
100
AcDbSpline
70
0
71
3
72
9
73
5
74
0
42
0.000000001
43
0.0000000001
44
0.0000000001
40
0
40
0
40
0
40
0
40
0.24200233333109433
40
0.45142168569597707
40
0.45142168569597707
40
0.45142168569597707
40
0.45142168569597707
10
-1135.9924900531769
20
-71.295203208923397
30
0
10
-1135.1895598629221
20
-71.410235690325095
30
0
10
-1133.691805295882
20
-71.624812781171116
30
0
10
-1132.3068755093848
20
-72.230855910646397
30
0
10
-1131.6643917560577
20
-72.512005805969295
30
0
0
SPLINE
5
306
100
AcDbEntity
8
0
100
AcDbSpline
70
0
71
3
72
9
73
5
74
0
42
0.000000001
43
0.0000000001
44
0.0000000001
40
0
40
0
40
0
40
0
40
0.19967142413055058
40
0.41196108012448551
40
0.41196108012448551
40
0.41196108012448551
40
0.41196108012448551
10
-1131.6643917560577
20
-72.512005805969295
30
0
10
-1131.0900398271715
20
-72.855405336092787
30
0
10
-1129.9050398101397
20
-73.563905523137151
30
0
10
-1128.9661107421623
20
-74.576908316130982
30
0
10
-1128.482266664505
20
-75.098923683166561
30
0
0
SPLINE
5
307
100
AcDbEntity
8
0
100
AcDbSpline
70
0
71
3
72
9
73
5
74
0
42
0.000000001
43
0.0000000001
44
0.0000000001
40
0
40
0
40
0
40
0
40
0.20915765231547592
40
0.4002614632668442
40
0.4002614632668442
40
0.4002614632668442
40
0.4002614632668442
10
-1128.482266664505
20
-75.098923683166561
30
0
10
-1128.0438514704185
20
-75.647535493956397
30
0
10
-1127.2048637252378
20
-76.697404641564788
30
0
10
-1126.7328533857471
20
-77.954647868198478
30
0
10
-1126.5074932575226
20
-78.554915428161678
30
0
0
SPLINE
5
308
100
AcDbEntity
8
0
100
AcDbSpline
70
0
71
3
72
9
73
5
74
0
42
0.000000001
43
0.0000000001
44
0.0000000001
40
0
40
0
40
0
40
0
40
0.27752831543296841
40
0.51571255427865637
40
0.51571255427865637
40
0.51571255427865637
40
0.51571255427865637
10
-1126.5074932575226
20
-78.554915428161678
30
0
10
-1126.2572631769151
20
-79.448917788845137
30
0
10
-1125.7922771309829
20
-81.110183379853211
30
0
10
-1125.6935982087293
20
-82.831454433267325
30
0
10
-1125.6480228900909
20
-83.626431465148983
30
0
0
LINE
5
309
100
AcDbEntity
8
0
100
AcDbLine
10
-1125.6480228900909
20
-83.626431465148983
30
0
11
-1125.6480228900909
21
-101.50000476837164
31
0
0
LINE
5
310
100
AcDbEntity
8
0
100
AcDbLine
10
-1125.6480228900909
20
-101.50000476837164
30
0
11
-1134.8976719379425
21
-101.50000476837164
31
0
0
LINE
5
311
100
AcDbEntity
8
0
100
AcDbLine
10
-1134.8976719379425
20
-101.50000476837164
30
0
11
-1134.8976719379425
21
-83.200844764709529
31
0
0
SPLINE
5
312
100
AcDbEntity
8
0
100
AcDbSpline
70
0
71
3
72
9
73
5
74
0
42
0.000000001
43
0.0000000001
44
0.0000000001
40
0
40
0
40
0
40
0
40
0.22116306487634407
40
0.41504815833029146
40
0.41504815833029146
40
0.41504815833029146
40
0.41504815833029146
10
-1134.8976719379425
20
-83.200844764709529
30
0
10
-1134.9378948770332
20
-82.445329458493887
30
0
10
-1135.0133797090123
20
-81.027483144008869
30
0
10
-1135.8620706045447
20
-79.895750314537239
30
0
10
-1136.2585270404816
20
-79.367074012756404
30
0
0
SPLINE
5
313
100
AcDbEntity
8
0
100
AcDbSpline
70
0
71
3
72
9
73
5
74
0
42
0.000000001
43
0.0000000001
44
0.0000000001
40
0
40
0
40
0
40
0
40
0.19260525250687352
40
0.41048029990791213
40
0.41048029990791213
40
0.41048029990791213
40
0.41048029990791213
10
-1136.2585270404816
20
-79.367074012756404
30
0
10
-1136.7782698967203
20
-78.964975955035044
30
0
10
-1137.8859458335239
20
-78.10802460413683
30
0
10
-1139.2892550479644
20
-78.028990370608796
30
0
10
-1140.0341045856476
20
-77.987040519714412
30
0
0
SPLINE
5
314
100
AcDbEntity
8
0
100
AcDbSpline
70
0
71
3
72
9
73
5
74
0
42
0.000000001
43
0.0000000001
44
0.0000000001
40
0
40
0
40
0
40
0
40
0.21627881739141055
40
0.40763720442015289
40
0.40763720442015289
40
0.40763720442015289
40
0.40763720442015289
10
-1140.0341045856476
20
-77.987040519714412
30
0
10
-1140.7731174776861
20
-78.028490992442585
30
0
10
-1142.1659915139626
20
-78.106615863979272
30
0
10
-1143.2706520744282
20
-78.950583814807302
30
0
10
-1143.7892162799835
20
-79.346770286560115
30
0
0
LWPOLYLINE
5
315
100
AcDbEntity
8
0
100
AcDbPolyline
90
10
70
1
43
0.0
10
-1034.317866563797
20
-71.500004768371639
10
-1025.600266456604
20
-71.500004768371639
10
-1025.600266456604
20
-101.50000476837164
10
-1034.2564737796783
20
-101.50000476837164
10
-1045.5525171756744
20
-84.902543067932186
10
-1045.5525171756744
20
-101.50000476837164
10
-1054.2905819416046
20
-101.50000476837164
10
-1054.2905819416046
20
-71.500004768371639
10
-1045.5525171756744
20
-71.500004768371639
10
-1034.317866563797
20
-87.972125053405819
0
LWPOLYLINE
5
316
100
AcDbEntity
8
0
100
AcDbPolyline
90
4
70
1
43
0.0
10
-1149.2462408542633
20
-49.26262283325201
10
-1146.4699804782867
20
-49.26262283325201
10
-1146.4699804782867
20
-56.506828308105526
10
-1149.2462408542633
20
-56.506828308105526
0
LINE
5
317
100
AcDbEntity
8
0
100
AcDbLine
10
-1140.7332861423492
20
-56.506828308105526
30
0
11
-1140.7332861423492
21
-57.836975097656307
31
0
0
LINE
5
318
100
AcDbEntity
8
0
100
AcDbLine
10
-1140.7332861423492
20
-57.836975097656307
30
0
11
-1143.5163748264313
21
-59.26262283325201
31
0
0
LINE
5
319
100
AcDbEntity
8
0
100
AcDbLine
10
-1143.5163748264313
20
-59.26262283325201
30
0
11
-1143.5163748264313
21
-56.506828308105526
31
0
0
LINE
5
320
100
AcDbEntity
8
0
100
AcDbLine
10
-1143.5163748264313
20
-56.506828308105526
30
0
11
-1145.0443518161774
21
-56.506828308105526
31
0
0
LINE
5
321
100
AcDbEntity
8
0
100
AcDbLine
10
-1145.0443518161774
20
-56.506828308105526
30
0
11
-1145.0443518161774
21
-54.474081039428768
31
0
0
LINE
5
322
100
AcDbEntity
8
0
100
AcDbLine
10
-1145.0443518161774
20
-54.474081039428768
30
0
11
-1143.5163748264313
21
-54.474081039428768
31
0
0
LINE
5
323
100
AcDbEntity
8
0
100
AcDbLine
10
-1143.5163748264313
20
-54.474081039428768
30
0
11
-1143.5163748264313
21
-51.907571792602596
31
0
0
SPLINE
5
324
100
AcDbEntity
8
0
100
AcDbSpline
70
0
71
3
72
9
73
5
74
0
42
0.000000001
43
0.0000000001
44
0.0000000001
40
0
40
0
40
0
40
0
40
0.038524537986324589
40
0.062277055687622665
40
0.062277055687622665
40
0.062277055687622665
40
0.062277055687622665
10
-1143.5163748264313
20
-51.907571792602596
30
0
10
-1143.5149260492042
20
-51.7778462815388
30
0
10
-1143.5125840203368
20
-51.568137786670043
30
0
10
-1143.5795185734949
20
-51.370369809507949
30
0
10
-1143.6050474643707
20
-51.294940948486385
30
0
0
SPLINE
5
325
100
AcDbEntity
8
0
100
AcDbSpline
70
0
71
3
72
9
73
5
74
0
42
0.000000001
43
0.0000000001
44
0.0000000001
40
0
40
0
40
0
40
0
40
0.025560737196308188
40
0.055124342964793918
40
0.055124342964793918
40
0.055124342964793918
40
0.055124342964793918
10
-1143.6050474643707
20
-51.294940948486385
30
0
10
-1143.662702150421
20
-51.227514160770262
30
0
10
-1143.7870403752127
20
-51.082101399685484
30
0
10
-1143.9793923582924
20
-51.069958418429025
30
0
10
-1144.0825521945953
20
-51.063446044921932
30
0
0
SPLINE
5
326
100
AcDbEntity
8
0
100
AcDbSpline
70
0
71
3
72
9
73
5
74
0
42
0.000000001
43
0.0000000001
44
0.0000000001
40
0
40
0
40
0
40
0
40
0.037099674657031734
40
0.0879750137614667
40
0.0879750137614667
40
0.0879750137614667
40
0.0879750137614667
10
-1144.0825521945953
20
-51.063446044921932
30
0
10
-1144.2060519660849
20
-51.07450524453796
30
0
10
-1144.4989088225614
20
-51.100730090103355
30
0
10
-1144.7796638694358
20
-51.189272910525752
30
0
10
-1144.942022562027
20
-51.240476608276424
30
0
0
LINE
5
327
100
AcDbEntity
8
0
100
AcDbLine
10
-1144.942022562027
20
-51.240476608276424
30
0
11
-1145.1466619968414
21
-49.32401084899908
31
0
0
SPLINE
5
328
100
AcDbEntity
8
0
100
AcDbSpline
70
0
71
3
72
9
73
5
74
0
42
0.000000001
43
0.0000000001
44
0.0000000001
40
0
40
0
40
0
40
0
40
0.10101102982627877
40
0.19395118884528037
40
0.19395118884528037
40
0.19395118884528037
40
0.19395118884528037
10
-1145.1466619968414
20
-49.32401084899908
30
0
10
-1144.8157666507009
20
-49.258393041131541
30
0
10
-1144.1804147898426
20
-49.1324003464009
30
0
10
-1143.5332026416202
20
-49.109762844860221
30
0
10
-1143.2230627536774
20
-49.098915100097713
30
0
0
SPLINE
5
329
100
AcDbEntity
8
0
100
AcDbSpline
70
0
71
3
72
9
73
5
74
0
42
0.000000001
43
0.0000000001
44
0.0000000001
40
0
40
0
40
0
40
0
40
0.090284880031829828
40
0.15612854138860949
40
0.15612854138860949
40
0.15612854138860949
40
0.15612854138860949
10
-1143.2230627536774
20
-49.098915100097713
30
0
10
-1142.9190835060504
20
-49.101122292437651
30
0
10
-1142.3934159022647
20
-49.104939163219029
30
0
10
-1141.9022449959907
20
-49.2875896238195
30
0
10
-1141.6951048374176
20
-49.364618301391658
30
0
0
SPLINE
5
330
100
AcDbEntity
8
0
100
AcDbSpline
70
0
71
3
72
9
73
5
74
0
42
0.000000001
43
0.0000000001
44
0.0000000001
40
0
40
0
40
0
40
0
40
0.054268689796832068
40
0.1102098407428245
40
0.1102098407428245
40
0.1102098407428245
40
0.1102098407428245
10
-1141.6951048374176
20
-49.364618301391658
30
0
10
-1141.5414770816667
20
-49.466022190180695
30
0
10
-1141.229487045453
20
-49.671955048998235
30
0
10
-1141.0564601834958
20
-50.003595588014335
30
0
10
-1140.968633890152
20
-50.171932220459041
30
0
0
SPLINE
5
331
100
AcDbEntity
8
0
100
AcDbSpline
70
0
71
3
72
9
73
5
74
0
42
0.000000001
43
0.0000000001
44
0.0000000001
40
0
40
0
40
0
40
0
40
0.073097549870414585
40
0.17774761018139706
40
0.17774761018139706
40
0.17774761018139706
40
0.17774761018139706
10
-1140.968633890152
20
-50.171932220459041
30
0
10
-1140.9005134881972
20
-50.406976400179921
30
0
10
-1140.7348685565476
20
-50.978521428795709
30
0
10
-1140.7338725485367
20
-51.574962312645653
30
0
10
-1140.7332861423492
20
-51.926120758056697
30
0
0
LINE
5
332
100
AcDbEntity
8
0
100
AcDbLine
10
-1140.733286142349
20
-51.92612075805669
30
0
11
-1140.7332861423492
21
-54.474081039428768
31
0
0
LINE
5
333
100
AcDbEntity
8
0
100
AcDbLine
10
-1140.7332861423492
20
-54.474081039428768
30
0
11
-1139.7101080417633
21
-54.474081039428768
31
0
0
LINE
5
334
100
AcDbEntity
8
0
100
AcDbLine
10
-1139.7101080417633
20
-54.474081039428768
30
0
11
-1139.7101080417633
21
-56.506828308105526
31
0
0
LINE
5
335
100
AcDbEntity
8
0
100
AcDbLine
10
-1139.7101080417633
20
-56.506828308105526
30
0
11
-1140.7332861423492
21
-56.506828308105526
31
0
0
LINE
5
336
100
AcDbEntity
8
0
100
AcDbLine
10
-1124.3076384067535
20
-49.26262283325201
30
0
11
-1121.531378030777
21
-49.26262283325201
31
0
0
LINE
5
337
100
AcDbEntity
8
0
100
AcDbLine
10
-1121.531378030777
20
-49.26262283325201
30
0
11
-1121.531378030777
21
-56.506828308105526
31
0
0
LINE
5
338
100
AcDbEntity
8
0
100
AcDbLine
10
-1121.531378030777
20
-56.506828308105526
30
0
11
-1124.1166365146637
21
-56.506828308105526
31
0
0
LINE
5
339
100
AcDbEntity
8
0
100
AcDbLine
10
-1124.1166365146637
20
-56.506828308105526
30
0
11
-1124.1166365146637
21
-55.326742172241268
31
0
0
SPLINE
5
340
100
AcDbEntity
8
0
100
AcDbSpline
70
0
71
3
72
9
73
5
74
0
42
0.000000001
43
0.0000000001
44
0.0000000001
40
0
40
0
40
0
40
0
40
0.085112033834899972
40
0.15716547913500667
40
0.15716547913500667
40
0.15716547913500667
40
0.15716547913500667
10
-1124.1166365146637
20
-55.326742172241268
30
0
10
-1124.3007799099432
20
-55.54522621876135
30
0
10
-1124.6408139056628
20
-55.948672691692479
30
0
10
-1125.0858667604334
20
-56.230820113942229
30
0
10
-1125.2899038791656
20
-56.360172271728572
30
0
0
SPLINE
5
341
100
AcDbEntity
8
0
100
AcDbSpline
70
0
71
3
72
9
73
5
74
0
42
0.000000001
43
0.0000000001
44
0.0000000001
40
0
40
0
40
0
40
0
40
0.069819935427023985
40
0.14898698033456695
40
0.14898698033456695
40
0.14898698033456695
40
0.14898698033456695
10
-1125.2899038791656
20
-56.360172271728572
30
0
10
-1125.5064647446168
20
-56.450599247508833
30
0
10
-1125.9685784547607
20
-56.643559065931584
30
0
10
-1126.4697242079128
20
-56.661175314816319
30
0
10
-1126.7360174655914
20
-56.670536041259822
30
0
0
SPLINE
5
342
100
AcDbEntity
8
0
100
AcDbSpline
70
0
71
3
72
9
73
5
74
0
42
0.000000001
43
0.0000000001
44
0.0000000001
40
0
40
0
40
0
40
0
40
0.10416449208530715
40
0.19731666310118387
40
0.19731666310118387
40
0.19731666310118387
40
0.19731666310118387
10
-1126.7360174655914
20
-56.670536041259822
30
0
10
-1127.0924776652751
20
-56.648918948825404
30
0
10
-1127.7677129179208
20
-56.607970133545713
30
0
10
-1128.2924908322302
20
-56.184781805588351
30
0
10
-1128.5402357578278
20
-55.984996795654354
30
0
0
SPLINE
5
343
100
AcDbEntity
8
0
100
AcDbSpline
70
0
71
3
72
9
73
5
74
0
42
0.000000001
43
0.0000000001
44
0.0000000001
40
0
40
0
40
0
40
0
40
0.099978364633400832
40
0.22561129223565951
40
0.22561129223565951
40
0.22561129223565951
40
0.22561129223565951
10
-1128.5402357578278
20
-55.984996795654354
30
0
10
-1128.7296031694182
20
-55.70303148677052
30
0
10
-1129.1569298874829
20
-55.066748247530022
30
0
10
-1129.1792452009927
20
-54.29611984149544
30
0
10
-1129.1916716098785
20
-53.866991043090877
30
0
0
LINE
5
344
100
AcDbEntity
8
0
100
AcDbLine
10
-1129.1916716098788
20
-53.866991043090877
30
0
11
-1129.1916716098785
21
-49.26262283325201
31
0
0
LINE
5
345
100
AcDbEntity
8
0
100
AcDbLine
10
-1129.1916716098785
20
-49.26262283325201
30
0
11
-1126.4017736911774
21
-49.26262283325201
31
0
0
LINE
5
346
100
AcDbEntity
8
0
100
AcDbLine
10
-1126.4017736911774
20
-49.26262283325201
30
0
11
-1126.4017736911774
21
-53.246253967285213
31
0
0
SPLINE
5
347
100
AcDbEntity
8
0
100
AcDbSpline
70
0
71
3
72
9
73
5
74
0
42
0.000000001
43
0.0000000001
44
0.0000000001
40
0
40
0
40
0
40
0
40
0.058577870443671382
40
0.10128675871312379
40
0.10128675871312379
40
0.10128675871312379
40
0.10128675871312379
10
-1126.4017736911774
20
-53.246253967285213
30
0
10
-1126.3996871041329
20
-53.445898548477558
30
0
10
-1126.3960791949189
20
-53.791103185833862
30
0
10
-1126.2225465562758
20
-54.086788259357533
30
0
10
-1126.1493742465973
20
-54.211467742919979
30
0
0
SPLINE
5
348
100
AcDbEntity
8
0
100
AcDbSpline
70
0
71
3
72
9
73
5
74
0
42
0.000000001
43
0.0000000001
44
0.0000000001
40
0
40
0
40
0
40
0
40
0.037041602089597357
40
0.078240493766520286
40
0.078240493766520286
40
0.078240493766520286
40
0.078240493766520286
10
-1126.1493742465973
20
-54.211467742919979
30
0
10
-1126.0530385284096
20
-54.293968101035119
30
0
10
-1125.8495550467794
20
-54.468228078755004
30
0
10
-1125.5812531146046
20
-54.485468596192064
30
0
10
-1125.4399740695953
20
-54.494546890258846
30
0
0
SPLINE
5
349
100
AcDbEntity
8
0
100
AcDbSpline
70
0
71
3
72
9
73
5
74
0
42
0.000000001
43
0.0000000001
44
0.0000000001
40
0
40
0
40
0
40
0
40
0.046689873558918175
40
0.092818677771915381
40
0.092818677771915381
40
0.092818677771915381
40
0.092818677771915381
10
-1125.4399740695953
20
-54.494546890258846
30
0
10
-1125.2799930935766
20
-54.479022410536402
30
0
10
-1124.9619536231123
20
-54.448160007811865
30
0
10
-1124.7344703985455
20
-54.223970037444289
30
0
10
-1124.6214163303375
20
-54.112552642822322
30
0
0
SPLINE
5
350
100
AcDbEntity
8
0
100
AcDbSpline
70
0
71
3
72
9
73
5
74
0
42
0.000000001
43
0.0000000001
44
0.0000000001
40
0
40
0
40
0
40
0
40
0.058334519374572284
40
0.14243191869833499
40
0.14243191869833499
40
0.14243191869833499
40
0.14243191869833499
10
-1124.6214163303375
20
-54.112552642822322
30
0
10
-1124.5306243627779
20
-53.937839080501163
30
0
10
-1124.3089430275998
20
-53.511251389870935
30
0
10
-1124.3081227379705
20
-53.027248480345044
30
0
10
-1124.3076384067535
20
-52.741474151611385
30
0
0
LINE
5
351
100
AcDbEntity
8
0
100
AcDbLine
10
-1124.3076384067533
20
-52.741474151611385
30
0
11
-1124.3076384067535
21
-49.26262283325201
31
0
0
SPLINE
5
352
100
AcDbEntity
8
0
100
AcDbSpline
70
0
71
3
72
9
73
5
74
0
42
0.000000001
43
0.0000000001
44
0.0000000001
40
0
40
0
40
0
40
0
40
0.10872060741327902
40
0.23902893175158652
40
0.23902893175158652
40
0.23902893175158652
40
0.23902893175158652
10
-1112.8888189792633
20
-54.835609436035213
30
0
10
-1113.0258084266054
20
-54.496971857946406
30
0
10
-1113.3269881388835
20
-53.752456347342061
30
0
10
-1113.3480262987257
20
-52.948068084418196
30
0
10
-1113.3594954013824
20
-52.509550094604549
30
0
0
LINE
5
353
100
AcDbEntity
8
0
100
AcDbLine
10
-1113.3594954013824
20
-52.509550094604549
30
0
11
-1113.3594954013824
21
-52.195772171020565
31
0
0
LINE
5
354
100
AcDbEntity
8
0
100
AcDbLine
10
-1113.3594954013824
20
-52.195772171020565
30
0
11
-1107.7933180332184
21
-52.195772171020565
31
0
0
SPLINE
5
355
100
AcDbEntity
8
0
100
AcDbSpline
70
0
71
3
72
9
73
5
74
0
42
0.000000001
43
0.0000000001
44
0.0000000001
40
0
40
0
40
0
40
0
40
0.05970805367646375
40
0.10713074520502847
40
0.10713074520502847
40
0.10713074520502847
40
0.10713074520502847
10
-1107.7933180332184
20
-52.195772171020565
30
0
10
-1107.8205108129416
20
-51.99545547005858
30
0
10
-1107.8693012620779
20
-51.636038672328851
30
0
10
-1108.0672372571316
20
-51.333702041581404
30
0
10
-1108.154855966568
20
-51.199869155883846
30
0
0
SPLINE
5
356
100
AcDbEntity
8
0
100
AcDbSpline
70
0
71
3
72
9
73
5
74
0
42
0.000000001
43
0.0000000001
44
0.0000000001
40
0
40
0
40
0
40
0
40
0.058289439174028929
40
0.11812026603875231
40
0.11812026603875231
40
0.11812026603875231
40
0.11812026603875231
10
-1108.154855966568
20
-51.199869155883846
30
0
10
-1108.3006171515513
20
-51.062596725364045
30
0
10
-1108.5959939846848
20
-50.784421875124472
30
0
10
-1109.0004574893865
20
-50.747768240232759
30
0
10
-1109.2053282260895
20
-50.729202270507869
30
0
0
SPLINE
5
357
100
AcDbEntity
8
0
100
AcDbSpline
70
0
71
3
72
9
73
5
74
0
42
0.000000001
43
0.0000000001
44
0.0000000001
40
0
40
0
40
0
40
0
40
0.0402311457530624
40
0.081082134860754412
40
0.081082134860754412
40
0.081082134860754412
40
0.081082134860754412
10
-1109.2053282260895
20
-50.729202270507869
30
0
10
-1109.3405110228466
20
-50.737984306685071
30
0
10
-1109.61295938474
20
-50.755683684327494
30
0
10
-1109.8589956847723
20
-50.874153811350276
30
0
10
-1109.9829542636871
20
-50.933841705322322
30
0
0
SPLINE
5
358
100
AcDbEntity
8
0
100
AcDbSpline
70
0
71
3
72
9
73
5
74
0
42
0.000000001
43
0.0000000001
44
0.0000000001
40
0
40
0
40
0
40
0
40
0.029435225813734655
40
0.06686620049943115
40
0.06686620049943115
40
0.06686620049943115
40
0.06686620049943115
10
-1109.9829542636871
20
-50.933841705322322
30
0
10
-1110.0635090709088
20
-50.990625010134693
30
0
10
-1110.2465004950268
20
-51.119616167485788
30
0
10
-1110.3880374015257
20
-51.293514890123092
30
0
10
-1110.4672682285309
20
-51.390861511230526
30
0
0
LINE
5
359
100
AcDbEntity
8
0
100
AcDbLine
10
-1110.4672682285307
20
-51.390861511230526
30
0
11
-1113.2025969028473
21
-51.138471603393612
31
0
0
SPLINE
5
360
100
AcDbEntity
8
0
100
AcDbSpline
70
0
71
3
72
9
73
5
74
0
42
0.000000001
43
0.0000000001
44
0.0000000001
40
0
40
0
40
0
40
0
40
0.11651014527189282
40
0.21997639409862951
40
0.21997639409862951
40
0.21997639409862951
40
0.21997639409862951
10
-1113.2025969028473
20
-51.138471603393612
30
0
10
-1112.9923990712084
20
-50.805861509840042
30
0
10
-1112.5955361118208
20
-50.177878694695721
30
0
10
-1111.978500307059
20
-49.766485874026785
30
0
10
-1111.6882765293121
20
-49.57298660278326
30
0
0
SPLINE
5
361
100
AcDbEntity
8
0
100
AcDbSpline
70
0
71
3
72
9
73
5
74
0
42
0.000000001
43
0.0000000001
44
0.0000000001
40
0
40
0
40
0
40
0
40
0.11365140609549985
40
0.26061821624935955
40
0.26061821624935955
40
0.26061821624935955
40
0.26061821624935955
10
-1111.6882765293121
20
-49.57298660278326
30
0
10
-1111.3323326399202
20
-49.43528594263762
30
0
10
-1110.5161046254577
20
-49.11951949806447
30
0
10
-1109.6387084883302
20
-49.106344623873497
30
0
10
-1109.1439306735992
20
-49.098915100097713
30
0
0
SPLINE
5
362
100
AcDbEntity
8
0
100
AcDbSpline
70
0
71
3
72
9
73
5
74
0
42
0.000000001
43
0.0000000001
44
0.0000000001
40
0
40
0
40
0
40
0
40
0.12897985868333764
40
0.23148866170240431
40
0.23148866170240431
40
0.23148866170240431
40
0.23148866170240431
10
-1109.1439306735992
20
-49.098915100097713
30
0
10
-1108.7102991716902
20
-49.106595411285134
30
0
10
-1107.9320321067885
20
-49.120379772474472
30
0
10
-1107.2023842277677
20
-49.386801709637318
30
0
10
-1106.879278421402
20
-49.504779815673885
30
0
0
SPLINE
5
363
100
AcDbEntity
8
0
100
AcDbSpline
70
0
71
3
72
9
73
5
74
0
42
0.000000001
43
0.0000000001
44
0.0000000001
40
0
40
0
40
0
40
0
40
0.091941018831374163
40
0.18989675751917937
40
0.18989675751917937
40
0.18989675751917937
40
0.18989675751917937
10
-1106.879278421402
20
-49.504779815673885
30
0
10
-1106.613281066469
20
-49.664378084053084
30
0
10
-1106.0638849878474
20
-49.994015432606638
30
0
10
-1105.6995383963058
20
-50.521769475441744
30
0
10
-1105.5115950107574
20
-50.794004440307674
30
0
0
SPLINE
5
364
100
AcDbEntity
8
0
100
AcDbSpline
70
0
71
3
72
9
73
5
74
0
42
0.000000001
43
0.0000000001
44
0.0000000001
40
0
40
0
40
0
40
0
40
0.1043463613358727
40
0.21678001673850011
40
0.21678001673850011
40
0.21678001673850011
40
0.21678001673850011
10
-1105.5115950107574
20
-50.794004440307674
30
0
10
-1105.3534934685852
20
-51.108308711568284
30
0
10
-1105.0250368312893
20
-51.761277193770908
30
0
10
-1104.9883463549468
20
-52.492057122413541
30
0
10
-1104.9693167209625
20
-52.871078491210994
30
0
0
SPLINE
5
365
100
AcDbEntity
8
0
100
AcDbSpline
70
0
71
3
72
9
73
5
74
0
42
0.000000001
43
0.0000000001
44
0.0000000001
40
0
40
0
40
0
40
0
40
0.15603827347792873
40
0.30218741720939718
40
0.30218741720939718
40
0.30218741720939718
40
0.30218741720939718
10
-1104.9693167209625
20
-52.871078491210994
30
0
10
-1105.0084143770805
20
-53.404066851449969
30
0
10
-1105.0841318242035
20
-54.436264737221052
30
0
10
-1105.7400701881063
20
-55.234161507279552
30
0
10
-1106.0573065280914
20
-55.620054244995174
30
0
0
SPLINE
5
366
100
AcDbEntity
8
0
100
AcDbSpline
70
0
71
3
72
9
73
5
74
0
42
0.000000001
43
0.0000000001
44
0.0000000001
40
0
40
0
40
0
40
0
40
0.15159901584956806
40
0.32456389325638701
40
0.32456389325638701
40
0.32456389325638701
40
0.32456389325638701
10
-1106.0573065280914
20
-55.620054244995174
30
0
10
-1106.4732140712238
20
-55.926087699678661
30
0
10
-1107.3636457846303
20
-56.581285947253974
30
0
10
-1108.4716268961599
20
-56.639508425414249
30
0
10
-1109.0620863437653
20
-56.670536041259822
30
0
0
SPLINE
5
367
100
AcDbEntity
8
0
100
AcDbSpline
70
0
71
3
72
9
73
5
74
0
42
0.000000001
43
0.0000000001
44
0.0000000001
40
0
40
0
40
0
40
0
40
0.13965101331910351
40
0.25176436980638661
40
0.25176436980638661
40
0.25176436980638661
40
0.25176436980638661
10
-1109.0620863437653
20
-56.670536041259822
30
0
10
-1109.5320419885409
20
-56.661086979893227
30
0
10
-1110.3792831501462
20
-56.644052109012719
30
0
10
-1111.1669735568903
20
-56.336725132964247
30
0
10
-1111.5177404880524
20
-56.199869155883846
30
0
0
SPLINE
5
368
100
AcDbEntity
8
0
100
AcDbSpline
70
0
71
3
72
9
73
5
74
0
42
0.000000001
43
0.0000000001
44
0.0000000001
40
0
40
0
40
0
40
0
40
0.098032662714881119
40
0.19575320370665039
40
0.19575320370665039
40
0.19575320370665039
40
0.19575320370665039
10
-1111.5177404880524
20
-56.199869155883846
30
0
10
-1111.7998437055483
20
-56.02559522206807
30
0
10
-1112.3631519649737
20
-55.677602217265019
30
0
10
-1112.7137829975243
20
-55.115975198149663
30
0
10
-1112.8888189792633
20
-54.835609436035213
30
0
0
LWPOLYLINE
5
369
100
AcDbEntity
8
0
100
AcDbPolyline
90
12
70
1
43
0.0
10
-1163.1753027439117
20
-49.26262283325201
10
-1160.3376448154449
20
-49.26262283325201
10
-1160.3376448154449
20
-59.26262283325201
10
-1163.1753027439117
20
-59.26262283325201
10
-1163.1753027439117
20
-54.10083198547369
10
-1165.2489721775055
20
-56.506828308105526
10
-1168.6664259433746
20
-56.506828308105526
10
-1166.0676252841949
20
-53.969196319580135
10
-1168.8164961338043
20
-49.26262283325201
10
-1165.6884062290192
20
-49.26262283325201
10
-1164.2211973667145
20
-52.166570663452205
10
-1163.1753027439117
20
-51.14529991149908
0
LWPOLYLINE
5
370
100
AcDbEntity
8
0
100
AcDbPolyline
90
12
70
1
43
0.0
10
-1079.3553936481476
20
-49.26262283325201
10
-1076.2653505802155
20
-49.26262283325201
10
-1076.2653505802155
20
-59.26262283325201
10
-1079.3553936481476
20
-59.26262283325201
10
-1079.3553936481476
20
-55.48363113403326
10
-1082.5921976566315
20
-59.26262283325201
10
-1086.7019093036652
20
-59.26262283325201
10
-1083.0527412891388
20
-55.488113403320369
10
-1086.865621805191
20
-49.26262283325201
10
-1083.0603039264679
20
-49.26262283325201
10
-1080.9518921375275
20
-53.375114440918026
10
-1079.3553936481476
20
-51.702827453613338
0
SPLINE
5
371
100
AcDbEntity
8
0
100
AcDbSpline
70
0
71
3
72
9
73
5
74
0
42
0.000000001
43
0.0000000001
44
0.0000000001
40
0
40
0
40
0
40
0
40
0.17052369100215475
40
0.29105805172193999
40
0.29105805172193999
40
0.29105805172193999
40
0.29105805172193999
10
-1056.9747650623322
20
-49.098915100097713
30
0
10
-1056.3982145180414
20
-49.101259162670416
30
0
10
-1055.414130270543
20
-49.105260121607657
30
0
10
-1054.5183181037364
20
-49.501139470781155
30
0
10
-1054.1473400592804
20
-49.665082931518612
30
0
0
SPLINE
5
372
100
AcDbEntity
8
0
100
AcDbSpline
70
0
71
3
72
9
73
5
74
0
42
0.000000001
43
0.0000000001
44
0.0000000001
40
0
40
0
40
0
40
0
40
0.097372276351071083
40
0.19767936939057212
40
0.19767936939057212
40
0.19767936939057212
40
0.19767936939057212
10
-1054.1473400592804
20
-49.665082931518612
30
0
10
-1053.8911205009583
20
-49.87621154813985
30
0
10
-1053.3709588839902
20
-50.304832233184875
30
0
10
-1053.1687662510622
20
-50.948362221764967
30
0
10
-1053.0661690235138
20
-51.27490425109869
30
0
0
LINE
5
373
100
AcDbEntity
8
0
100
AcDbLine
10
-1053.0661690235138
20
-51.27490425109869
30
0
11
-1055.8219683170319
21
-51.534112930297908
31
0
0
SPLINE
5
374
100
AcDbEntity
8
0
100
AcDbSpline
70
0
71
3
72
9
73
5
74
0
42
0.000000001
43
0.0000000001
44
0.0000000001
40
0
40
0
40
0
40
0
40
0.046829759391797551
40
0.086023879468299896
40
0.086023879468299896
40
0.086023879468299896
40
0.086023879468299896
10
-1055.8219683170319
20
-51.534112930297908
30
0
10
-1055.8791697901042
20
-51.385991760405133
30
0
10
-1055.9842459785982
20
-51.113900726177221
30
0
10
-1056.200794916263
20
-50.919908531500901
30
0
10
-1056.2994587421417
20
-50.831521987915096
30
0
0
SPLINE
5
375
100
AcDbEntity
8
0
100
AcDbSpline
70
0
71
3
72
9
73
5
74
0
42
0.000000001
43
0.0000000001
44
0.0000000001
40
0
40
0
40
0
40
0
40
0.039166558377649763
40
0.085512523528880932
40
0.085512523528880932
40
0.085512523528880932
40
0.085512523528880932
10
-1056.2994587421417
20
-50.831521987915096
30
0
10
-1056.4164660971383
20
-50.769960753014175
30
0
10
-1056.671928782951
20
-50.635553831242497
30
0
10
-1056.9612213225203
20
-50.625502079952689
30
0
10
-1057.118011713028
20
-50.620054244995174
30
0
0
SPLINE
5
376
100
AcDbEntity
8
0
100
AcDbSpline
70
0
71
3
72
9
73
5
74
0
42
0.000000001
43
0.0000000001
44
0.0000000001
40
0
40
0
40
0
40
0
40
0.049981594722574095
40
0.091081227086403316
40
0.091081227086403316
40
0.091081227086403316
40
0.091081227086403316
10
-1057.118011713028
20
-50.620054244995174
30
0
10
-1057.2876556787721
20
-50.625484256746027
30
0
10
-1057.5967970867953
20
-50.635379341848967
30
0
10
-1057.8638222937234
20
-50.789111862736576
30
0
10
-1057.9843151569366
20
-50.858482360839901
30
0
0
SPLINE
5
377
100
AcDbEntity
8
0
100
AcDbSpline
70
0
71
3
72
9
73
5
74
0
42
0.000000001
43
0.0000000001
44
0.0000000001
40
0
40
0
40
0
40
0
40
0.026782137148761598
40
0.051850346330469241
40
0.051850346330469241
40
0.051850346330469241
40
0.051850346330469241
10
-1057.9843151569366
20
-50.858482360839901
30
0
10
-1058.0539260001724
20
-50.919623395797146
30
0
10
-1058.1886929274744
20
-51.037992733536242
30
0
10
-1058.2118582110443
20
-51.215365788838568
30
0
10
-1058.2230579853058
20
-51.301120758056697
30
0
0
SPLINE
5
378
100
AcDbEntity
8
0
100
AcDbSpline
70
0
71
3
72
9
73
5
74
0
42
0.000000001
43
0.0000000001
44
0.0000000001
40
0
40
0
40
0
40
0
40
0.027699528985660346
40
0.058425620147449828
40
0.058425620147449828
40
0.058425620147449828
40
0.058425620147449828
10
-1058.2230579853058
20
-51.301120758056697
30
0
10
-1058.2074749868025
20
-51.396591376026457
30
0
10
-1058.1746063285743
20
-51.597964116466635
30
0
10
-1058.0007246222715
20
-51.70699202554465
30
0
10
-1057.9092800617218
20
-51.764329910278377
30
0
0
SPLINE
5
379
100
AcDbEntity
8
0
100
AcDbSpline
70
0
71
3
72
9
73
5
74
0
42
0.000000001
43
0.0000000001
44
0.0000000001
40
0
40
0
40
0
40
0
40
0.043087112359923269
40
0.12291359381288273
40
0.12291359381288273
40
0.12291359381288273
40
0.12291359381288273
10
-1057.9092800617218
20
-51.764329910278377
30
0
10
-1057.7729568801262
20
-51.810076596376945
30
0
10
-1057.3840709406377
20
-51.9405770937516
30
0
10
-1056.9787759999535
20
-52.007154941015727
30
0
10
-1056.7155563831329
20
-52.050394058227596
30
0
0
SPLINE
5
380
100
AcDbEntity
8
0
100
AcDbSpline
70
0
71
3
72
9
73
5
74
0
42
0.000000001
43
0.0000000001
44
0.0000000001
40
0
40
0
40
0
40
0
40
0.12490787701184745
40
0.20640676410861691
40
0.20640676410861691
40
0.20640676410861691
40
0.20640676410861691
10
-1056.7155563831329
20
-52.050394058227596
30
0
10
-1056.3046811482607
20
-52.121148251057278
30
0
10
-1055.6257213443541
20
-52.238067570626718
30
0
10
-1054.9668441500971
20
-52.438128864987128
30
0
10
-1054.706689119339
20
-52.517122268676815
30
0
0
SPLINE
5
381
100
AcDbEntity
8
0
100
AcDbSpline
70
0
71
3
72
9
73
5
74
0
42
0.000000001
43
0.0000000001
44
0.0000000001
40
0
40
0
40
0
40
0
40
0.059341440358054463
40
0.12062845026546665
40
0.12062845026546665
40
0.12062845026546665
40
0.12062845026546665
10
-1054.706689119339
20
-52.517122268676815
30
0
10
-1054.525494601578
20
-52.602363797702992
30
0
10
-1054.1571649192813
20
-52.775641586085641
30
0
10
-1053.8928274655486
20
-53.085441523121979
30
0
10
-1053.7585270404816
20
-53.242839813232479
30
0
0
SPLINE
5
382
100
AcDbEntity
8
0
100
AcDbSpline
70
0
71
3
72
9
73
5
74
0
42
0.000000001
43
0.0000000001
44
0.0000000001
40
0
40
0
40
0
40
0
40
0.061853891089247624
40
0.12444191932731974
40
0.12444191932731974
40
0.12444191932731974
40
0.12444191932731974
10
-1053.7585270404816
20
-53.242839813232479
30
0
10
-1053.6461201494726
20
-53.419793614105643
30
0
10
-1053.4199722222131
20
-53.775801461391239
30
0
10
-1053.388804149246
20
-54.196510405435617
30
0
10
-1053.3731281757355
20
-54.408105850219783
30
0
0
SPLINE
5
383
100
AcDbEntity
8
0
100
AcDbSpline
70
0
71
3
72
9
73
5
74
0
42
0.000000001
43
0.0000000001
44
0.0000000001
40
0
40
0
40
0
40
0
40
0.067424269443994211
40
0.13217257967435428
40
0.13217257967435428
40
0.13217257967435428
40
0.13217257967435428
10
-1053.3731281757355
20
-54.408105850219783
30
0
10
-1053.3890167998175
20
-54.636574091954415
30
0
10
-1053.4201634544229
20
-55.084443043783594
30
0
10
-1053.6678767595477
20
-55.458396838363768
30
0
10
-1053.7892258167267
20
-55.641588211059627
30
0
0
SPLINE
5
384
100
AcDbEntity
8
0
100
AcDbSpline
70
0
71
3
72
9
73
5
74
0
42
0.000000001
43
0.0000000001
44
0.0000000001
40
0
40
0
40
0
40
0
40
0.067018385723789639
40
0.13964629303450399
40
0.13964629303450399
40
0.13964629303450399
40
0.13964629303450399
10
-1053.7892258167267
20
-55.641588211059627
30
0
10
-1053.9455487169444
20
-55.804830793682271
30
0
10
-1054.2712789370332
20
-56.144979564537216
30
0
10
-1054.7080441144637
20
-56.322620304962982
30
0
10
-1054.9351990222931
20
-56.415008544921932
30
0
0
SPLINE
5
385
100
AcDbEntity
8
0
100
AcDbSpline
70
0
71
3
72
9
73
5
74
0
42
0.000000001
43
0.0000000001
44
0.0000000001
40
0
40
0
40
0
40
0
40
0.087559509040568417
40
0.19807865610105163
40
0.19807865610105163
40
0.19807865610105163
40
0.19807865610105163
10
-1054.9351990222931
20
-56.415008544921932
30
0
10
-1055.2185304517391
20
-56.489283238804973
30
0
10
-1055.8594877776859
20
-56.657308753199445
30
0
10
-1056.5228048046536
20
-56.665798909046359
30
0
10
-1056.8929064273834
20
-56.670536041259822
30
0
0
SPLINE
5
386
100
AcDbEntity
8
0
100
AcDbSpline
70
0
71
3
72
9
73
5
74
0
42
0.000000001
43
0.0000000001
44
0.0000000001
40
0
40
0
40
0
40
0
40
0.11274505353668521
40
0.19283200512701282
40
0.19283200512701282
40
0.19283200512701282
40
0.19283200512701282
10
-1056.8929064273834
20
-56.670536041259822
30
0
10
-1057.2701578594545
20
-56.669589150118362
30
0
10
-1057.9153848366152
20
-56.667969647428755
30
0
10
-1058.5448487012868
20
-56.530011944623823
30
0
10
-1058.806277513504
20
-56.472715377807674
30
0
0
SPLINE
5
387
100
AcDbEntity
8
0
100
AcDbSpline
70
0
71
3
72
9
73
5
74
0
42
0.000000001
43
0.0000000001
44
0.0000000001
40
0
40
0
40
0
40
0
40
0.061987634163094885
40
0.12079672860527169
40
0.12079672860527169
40
0.12079672860527169
40
0.12079672860527169
10
-1058.806277513504
20
-56.472715377807674
30
0
10
-1059.0016069677968
20
-56.399589921198569
30
0
10
-1059.3822499685716
20
-56.257088661787584
30
0
10
-1059.6876240781091
20
-55.989217787175477
30
0
10
-1059.8362934589386
20
-55.858806610107479
30
0
0
SPLINE
5
388
100
AcDbEntity
8
0
100
AcDbSpline
70
0
71
3
72
9
73
5
74
0
42
0.000000001
43
0.0000000001
44
0.0000000001
40
0
40
0
40
0
40
0
40
0.061823525143580103
40
0.13248898405995033
40
0.13248898405995033
40
0.13248898405995033
40
0.13248898405995033
10
-1059.8362934589386
20
-55.858806610107479
30
0
10
-1059.9706350072181
20
-55.700881304954706
30
0
10
-1060.2585314868716
20
-55.362444388126413
30
0
10
-1060.4302457271317
20
-54.952135552359849
30
0
10
-1060.5218327045441
20
-54.733289718627987
30
0
0
LINE
5
389
100
AcDbEntity
8
0
100
AcDbLine
10
-1060.5218327045441
20
-54.733289718627987
30
0
11
-1057.8888142108917
21
-54.474081039428768
31
0
0
SPLINE
5
390
100
AcDbEntity
8
0
100
AcDbSpline
70
0
71
3
72
9
73
5
74
0
42
0.000000001
43
0.0000000001
44
0.0000000001
40
0
40
0
40
0
40
0
40
0.033124681748134557
40
0.062428415791776326
40
0.062428415791776326
40
0.062428415791776326
40
0.062428415791776326
10
-1057.8888142108917
20
-54.474081039428768
30
0
10
-1057.8517296731522
20
-54.580422648053251
30
0
10
-1057.7818383166391
20
-54.780839310457807
30
0
10
-1057.6225303876431
20
-54.920243613546248
30
0
10
-1057.5477516651154
20
-54.985679626464901
30
0
0
SPLINE
5
391
100
AcDbEntity
8
0
100
AcDbSpline
70
0
71
3
72
9
73
5
74
0
42
0.000000001
43
0.0000000001
44
0.0000000001
40
0
40
0
40
0
40
0
40
0.039686648062962647
40
0.083005723405449719
40
0.083005723405449719
40
0.083005723405449719
40
0.083005723405449719
10
-1057.5477516651154
20
-54.985679626464901
30
0
10
-1057.4298062458106
20
-55.049310371292748
30
0
10
-1057.1831201352518
20
-55.182395836129302
30
0
10
-1056.9027848556439
20
-55.196563023826037
30
0
10
-1056.7564833164215
20
-55.203956604003963
30
0
0
SPLINE
5
392
100
AcDbEntity
8
0
100
AcDbSpline
70
0
71
3
72
9
73
5
74
0
42
0.000000001
43
0.0000000001
44
0.0000000001
40
0
40
0
40
0
40
0
40
0.040885177288987162
40
0.071446828288451752
40
0.071446828288451752
40
0.071446828288451752
40
0.071446828288451752
10
-1056.7564833164215
20
-55.203956604003963
30
0
10
-1056.6176951754587
20
-55.202040523122626
30
0
10
-1056.3751629637047
20
-55.198692172674022
30
0
10
-1056.162087784523
20
-55.085514095945385
30
0
10
-1056.070944070816
20
-55.037101745605526
30
0
0
SPLINE
5
393
100
AcDbEntity
8
0
100
AcDbSpline
70
0
71
3
72
9
73
5
74
0
42
0.000000001
43
0.0000000001
44
0.0000000001
40
0
40
0
40
0
40
0
40
0.024515492398248996
40
0.047213142781855462
40
0.047213142781855462
40
0.047213142781855462
40
0.047213142781855462
10
-1056.070944070816
20
-55.037101745605526
30
0
10
-1056.0083017978463
20
-54.980144944033675
30
0
10
-1055.8876622230889
20
-54.870454730134419
30
0
10
-1055.8663280726696
20
-54.709302169497477
30
0
10
-1055.8560717105865
20
-54.631828308105526
30
0
0
SPLINE
5
394
100
AcDbEntity
8
0
100
AcDbSpline
70
0
71
3
72
9
73
5
74
0
42
0.000000001
43
0.0000000001
44
0.0000000001
40
0
40
0
40
0
40
0
40
0.024301897497992254
40
0.050814845185877713
40
0.050814845185877713
40
0.050814845185877713
40
0.050814845185877713
10
-1055.8560717105865
20
-54.631828308105526
30
0
10
-1055.8692948718713
20
-54.547802564492827
30
0
10
-1055.8969442722364
20
-54.37210619536522
30
0
10
-1056.0493855549887
20
-54.278727868844129
30
0
10
-1056.128922700882
20
-54.230007171630916
30
0
0
SPLINE
5
395
100
AcDbEntity
8
0
100
AcDbSpline
70
0
71
3
72
9
73
5
74
0
42
0.000000001
43
0.0000000001
44
0.0000000001
40
0
40
0
40
0
40
0
40
0.045207340195692933
40
0.12146726541637265
40
0.12146726541637265
40
0.12146726541637265
40
0.12146726541637265
10
-1056.128922700882
20
-54.230007171630916
30
0
10
-1056.2724592185928
20
-54.183101199500321
30
0
10
-1056.6581264181723
20
-54.057069892598868
30
0
10
-1057.0621637422512
20
-54.012648837810957
30
0
10
-1057.3158276081085
20
-53.984760284423885
30
0
0
SPLINE
5
396
100
AcDbEntity
8
0
100
AcDbSpline
70
0
71
3
72
9
73
5
74
0
42
0.000000001
43
0.0000000001
44
0.0000000001
40
0
40
0
40
0
40
0
40
0.12218152072017927
40
0.2110013678905503
40
0.2110013678905503
40
0.2110013678905503
40
0.2110013678905503
10
-1057.3158276081085
20
-53.984760284423885
30
0
10
-1057.7216063620617
20
-53.937250460927153
30
0
10
-1058.4223659502577
20
-53.855203374862413
30
0
10
-1059.0933906370228
20
-53.639487541556257
30
0
10
-1059.3758547306061
20
-53.548683166503963
30
0
0
SPLINE
5
397
100
AcDbEntity
8
0
100
AcDbSpline
70
0
71
3
72
9
73
5
74
0
42
0.000000001
43
0.0000000001
44
0.0000000001
40
0
40
0
40
0
40
0
40
0.068568802117573199
40
0.13191984815452543
40
0.13191984815452543
40
0.13191984815452543
40
0.13191984815452543
10
-1059.3758547306061
20
-53.548683166503963
30
0
10
-1059.5851418475152
20
-53.449271129266371
30
0
10
-1059.987790338238
20
-53.258011832733452
30
0
10
-1060.2725376404455
20
-52.915753127984132
30
0
10
-1060.4092800617218
20
-52.75139236450201
30
0
0
SPLINE
5
398
100
AcDbEntity
8
0
100
AcDbSpline
70
0
71
3
72
9
73
5
74
0
42
0.000000001
43
0.0000000001
44
0.0000000001
40
0
40
0
40
0
40
0
40
0.060618114671809671
40
0.12074336031974266
40
0.12074336031974266
40
0.12074336031974266
40
0.12074336031974266
10
-1060.4092800617218
20
-52.75139236450201
30
0
10
-1060.5137283544925
20
-52.574933222247715
30
0
10
-1060.7217757000276
20
-52.223449677926382
30
0
10
-1060.7522295399326
20
-51.816203071605202
30
0
10
-1060.7673943042755
20
-51.613410949707088
30
0
0
SPLINE
5
399
100
AcDbEntity
8
0
100
AcDbSpline
70
0
71
3
72
9
73
5
74
0
42
0.000000001
43
0.0000000001
44
0.0000000001
40
0
40
0
40
0
40
0
40
0.062561033709747013
40
0.12906482006820005
40
0.12906482006820005
40
0.12906482006820005
40
0.12906482006820005
10
-1060.7673943042755
20
-51.613410949707088
30
0
10
-1060.7497794917076
20
-51.40301787221734
30
0
10
-1060.7134397370746
20
-50.968972219842229
30
0
10
-1060.4992042526997
20
-50.5892727401827
30
0
10
-1060.3888142108917
20
-50.393623352050838
30
0
0
SPLINE
5
400
100
AcDbEntity
8
0
100
AcDbSpline
70
0
71
3
72
9
73
5
74
0
42
0.000000001
43
0.0000000001
44
0.0000000001
40
0
40
0
40
0
40
0
40
0.07220122065573964
40
0.15391358206975417
40
0.15391358206975417
40
0.15391358206975417
40
0.15391358206975417
10
-1060.3888142108917
20
-50.393623352050838
30
0
10
-1060.2368805714539
20
-50.202961508599664
30
0
10
-1059.9129989186176
20
-49.7965217417498
30
0
10
-1059.4440528861819
20
-49.570064342767282
30
0
10
-1059.1950905323029
20
-49.449838638305721
30
0
0
SPLINE
5
401
100
AcDbEntity
8
0
100
AcDbSpline
70
0
71
3
72
9
73
5
74
0
42
0.000000001
43
0.0000000001
44
0.0000000001
40
0
40
0
40
0
40
0
40
0.099798433584192506
40
0.22587126685147696
40
0.22587126685147696
40
0.22587126685147696
40
0.22587126685147696
10
-1059.1950905323029
20
-49.449838638305721
30
0
10
-1058.8766297760224
20
-49.347839304361912
30
0
10
-1058.1558656128964
20
-49.116986795475057
30
0
10
-1057.3978569474723
20
-49.105388712916906
30
0
10
-1056.9747650623322
20
-49.098915100097713
30
0
0
LWPOLYLINE
5
402
100
AcDbEntity
8
0
100
AcDbPolyline
90
4
70
1
43
0.0
10
-1051.7837679386139
20
-57.373126983642635
10
-1049.0075051784515
20
-57.373126983642635
10
-1049.0075051784515
20
-59.26262283325201
10
-1051.7837679386139
20
-59.26262283325201
0
LWPOLYLINE
5
403
100
AcDbEntity
8
0
100
AcDbPolyline
90
12
70
1
43
0.0
10
-1033.1070983409882
20
-49.26262283325201
10
-1030.2694427967072
20
-49.26262283325201
10
-1030.2694427967072
20
-59.26262283325201
10
-1033.1070983409882
20
-59.26262283325201
10
-1033.1070983409882
20
-54.10083198547369
10
-1035.1807677745819
20
-56.506828308105526
10
-1038.5982286930084
20
-56.506828308105526
10
-1035.9994280338287
20
-53.969196319580135
10
-1038.7482988834381
20
-49.26262283325201
10
-1035.6202065944672
20
-49.26262283325201
10
-1034.1529929637909
20
-52.166570663452205
10
-1033.1070983409882
20
-51.14529991149908
0
LWPOLYLINE
5
404
100
AcDbEntity
8
0
100
AcDbPolyline
90
8
70
1
43
0.0
10
-1014.3349280953407
20
-56.793321609497127
10
-1011.1834955215454
20
-56.793321609497127
10
-1011.1834955215454
20
-59.26262283325201
10
-1020.5764019489288
20
-59.26262283325201
10
-1020.5764019489288
20
-56.793321609497127
10
-1017.4249690771103
20
-56.793321609497127
10
-1017.4249690771103
20
-49.26262283325201
10
-1014.3349280953407
20
-49.26262283325201
0
LWPOLYLINE
5
405
100
AcDbEntity
8
0
100
AcDbPolyline
90
12
70
1
43
0.0
10
-1016.5
20
-640
10
-1016.5
20
-633.50000000000011
10
-1003.5
20
-633.50000000000011
10
-1003.5
20
-640
10
-997
20
-640
10
-997
20
-653.00000000000011
10
-1003.5
20
-653.00000000000011
10
-1003.5
20
-659.5
10
-1016.5
20
-659.5
10
-1016.5
20
-653.00000000000011
10
-1023
20
-653.00000000000011
10
-1023
20
-640
0
LWPOLYLINE
5
406
100
AcDbEntity
8
0
100
AcDbPolyline
90
12
70
1
43
0.0
10
-536.5
20
-160
10
-536.5
20
-153.50000000000009
10
-523.5
20
-153.50000000000009
10
-523.5
20
-160
10
-517
20
-160
10
-517
20
-173.00000000000011
10
-523.5
20
-173.00000000000011
10
-523.5
20
-179.50000000000003
10
-536.5
20
-179.50000000000003
10
-536.5
20
-173.00000000000011
10
-543
20
-173.00000000000011
10
-543
20
-160
0
LWPOLYLINE
5
407
100
AcDbEntity
8
0
100
AcDbPolyline
90
12
70
1
43
0.0
10
-56.500000000000057
20
-320
10
-56.500000000000057
20
-313.50000000000011
10
-43.499999999999943
20
-313.50000000000011
10
-43.499999999999943
20
-320
10
-37.000000000000028
20
-320
10
-37.000000000000028
20
-333.00000000000011
10
-43.499999999999943
20
-333.00000000000011
10
-43.499999999999943
20
-339.5
10
-56.500000000000057
20
-339.5
10
-56.500000000000057
20
-333.00000000000011
10
-62.999999999999972
20
-333.00000000000011
10
-62.999999999999972
20
-320
0
LWPOLYLINE
5
408
100
AcDbEntity
8
0
100
AcDbPolyline
90
12
70
1
43
0.0
10
-376.50000000000006
20
-320
10
-376.50000000000006
20
-313.50000000000011
10
-363.49999999999994
20
-313.50000000000011
10
-363.49999999999994
20
-320
10
-357
20
-320
10
-357
20
-333.00000000000011
10
-363.49999999999994
20
-333.00000000000011
10
-363.49999999999994
20
-339.5
10
-376.50000000000006
20
-339.5
10
-376.50000000000006
20
-333.00000000000011
10
-383
20
-333.00000000000011
10
-383
20
-320
0
LWPOLYLINE
5
409
100
AcDbEntity
8
0
100
AcDbPolyline
90
12
70
1
43
0.0
10
-856.5
20
-640
10
-856.5
20
-633.50000000000011
10
-843.5
20
-633.50000000000011
10
-843.5
20
-640
10
-837
20
-640
10
-837
20
-653.00000000000011
10
-843.5
20
-653.00000000000011
10
-843.5
20
-659.5
10
-856.5
20
-659.5
10
-856.5
20
-653.00000000000011
10
-863
20
-653.00000000000011
10
-863
20
-640
0
LWPOLYLINE
5
410
100
AcDbEntity
8
0
100
AcDbPolyline
90
12
70
1
43
0.0
10
-536.5
20
-320
10
-536.5
20
-313.50000000000011
10
-523.5
20
-313.50000000000011
10
-523.5
20
-320
10
-517
20
-320
10
-517
20
-333.00000000000011
10
-523.5
20
-333.00000000000011
10
-523.5
20
-339.5
10
-536.5
20
-339.5
10
-536.5
20
-333.00000000000011
10
-543
20
-333.00000000000011
10
-543
20
-320
0
LWPOLYLINE
5
411
100
AcDbEntity
8
0
100
AcDbPolyline
90
12
70
1
43
0.0
10
-696.5
20
-320
10
-696.5
20
-313.50000000000011
10
-683.5
20
-313.50000000000011
10
-683.5
20
-320
10
-677
20
-320
10
-677
20
-333.00000000000011
10
-683.5
20
-333.00000000000011
10
-683.5
20
-339.5
10
-696.5
20
-339.5
10
-696.5
20
-333.00000000000011
10
-703
20
-333.00000000000011
10
-703
20
-320
0
LWPOLYLINE
5
412
100
AcDbEntity
8
0
100
AcDbPolyline
90
12
70
1
43
0.0
10
-1016.5
20
-160
10
-1016.5
20
-153.50000000000009
10
-1003.5
20
-153.50000000000009
10
-1003.5
20
-160
10
-997
20
-160
10
-997
20
-173.00000000000011
10
-1003.5
20
-173.00000000000011
10
-1003.5
20
-179.50000000000003
10
-1016.5
20
-179.50000000000003
10
-1016.5
20
-173.00000000000011
10
-1023
20
-173.00000000000011
10
-1023
20
-160
0
LWPOLYLINE
5
413
100
AcDbEntity
8
0
100
AcDbPolyline
90
12
70
1
43
0.0
10
-1176.5
20
-320
10
-1176.5
20
-313.50000000000011
10
-1163.5
20
-313.50000000000011
10
-1163.5
20
-320
10
-1157
20
-320
10
-1157
20
-333.00000000000011
10
-1163.5
20
-333.00000000000011
10
-1163.5
20
-339.5
10
-1176.5
20
-339.5
10
-1176.5
20
-333.00000000000011
10
-1183
20
-333.00000000000011
10
-1183
20
-320
0
LWPOLYLINE
5
414
100
AcDbEntity
8
0
100
AcDbPolyline
90
12
70
1
43
0.0
10
-536.5
20
-480
10
-536.5
20
-473.50000000000011
10
-523.5
20
-473.50000000000011
10
-523.5
20
-480
10
-517
20
-480
10
-517
20
-493.00000000000011
10
-523.5
20
-493.00000000000011
10
-523.5
20
-499.5
10
-536.5
20
-499.5
10
-536.5
20
-493.00000000000011
10
-543
20
-493.00000000000011
10
-543
20
-480
0
LWPOLYLINE
5
415
100
AcDbEntity
8
0
100
AcDbPolyline
90
12
70
1
43
0.0
10
-1176.5
20
-640
10
-1176.5
20
-633.50000000000011
10
-1163.5
20
-633.50000000000011
10
-1163.5
20
-640
10
-1157
20
-640
10
-1157
20
-653.00000000000011
10
-1163.5
20
-653.00000000000011
10
-1163.5
20
-659.5
10
-1176.5
20
-659.5
10
-1176.5
20
-653.00000000000011
10
-1183
20
-653.00000000000011
10
-1183
20
-640
0
LWPOLYLINE
5
416
100
AcDbEntity
8
0
100
AcDbPolyline
90
12
70
1
43
0.0
10
-216.50000000000006
20
-640
10
-216.50000000000006
20
-633.50000000000011
10
-203.49999999999994
20
-633.50000000000011
10
-203.49999999999994
20
-640
10
-197.00000000000003
20
-640
10
-197.00000000000003
20
-653.00000000000011
10
-203.49999999999994
20
-653.00000000000011
10
-203.49999999999994
20
-659.5
10
-216.50000000000006
20
-659.5
10
-216.50000000000006
20
-653.00000000000011
10
-222.99999999999997
20
-653.00000000000011
10
-222.99999999999997
20
-640
0
LWPOLYLINE
5
417
100
AcDbEntity
8
0
100
AcDbPolyline
90
12
70
1
43
0.0
10
-376.50000000000006
20
-640
10
-376.50000000000006
20
-633.50000000000011
10
-363.49999999999994
20
-633.50000000000011
10
-363.49999999999994
20
-640
10
-357
20
-640
10
-357
20
-653.00000000000011
10
-363.49999999999994
20
-653.00000000000011
10
-363.49999999999994
20
-659.5
10
-376.50000000000006
20
-659.5
10
-376.50000000000006
20
-653.00000000000011
10
-383
20
-653.00000000000011
10
-383
20
-640
0
LWPOLYLINE
5
418
100
AcDbEntity
8
0
100
AcDbPolyline
90
12
70
1
43
0.0
10
-696.5
20
-640
10
-696.5
20
-633.50000000000011
10
-683.5
20
-633.50000000000011
10
-683.5
20
-640
10
-677
20
-640
10
-677
20
-653.00000000000011
10
-683.5
20
-653.00000000000011
10
-683.5
20
-659.5
10
-696.5
20
-659.5
10
-696.5
20
-653.00000000000011
10
-703
20
-653.00000000000011
10
-703
20
-640
0
LWPOLYLINE
5
419
100
AcDbEntity
8
0
100
AcDbPolyline
90
12
70
1
43
0.0
10
-1016.5
20
-320
10
-1016.5
20
-313.50000000000011
10
-1003.5
20
-313.50000000000011
10
-1003.5
20
-320
10
-997
20
-320
10
-997
20
-333.00000000000011
10
-1003.5
20
-333.00000000000011
10
-1003.5
20
-339.5
10
-1016.5
20
-339.5
10
-1016.5
20
-333.00000000000011
10
-1023
20
-333.00000000000011
10
-1023
20
-320
0
LWPOLYLINE
5
420
100
AcDbEntity
8
0
100
AcDbPolyline
90
12
70
1
43
0.0
10
-696.5
20
-160
10
-696.5
20
-153.50000000000009
10
-683.5
20
-153.50000000000009
10
-683.5
20
-160
10
-677
20
-160
10
-677
20
-173.00000000000011
10
-683.5
20
-173.00000000000011
10
-683.5
20
-179.50000000000003
10
-696.5
20
-179.50000000000003
10
-696.5
20
-173.00000000000011
10
-703
20
-173.00000000000011
10
-703
20
-160
0
LWPOLYLINE
5
421
100
AcDbEntity
8
0
100
AcDbPolyline
90
12
70
1
43
0.0
10
-56.500000000000057
20
-480
10
-56.500000000000057
20
-473.50000000000011
10
-43.499999999999943
20
-473.50000000000011
10
-43.499999999999943
20
-480
10
-37.000000000000028
20
-480
10
-37.000000000000028
20
-493.00000000000011
10
-43.499999999999943
20
-493.00000000000011
10
-43.499999999999943
20
-499.5
10
-56.500000000000057
20
-499.5
10
-56.500000000000057
20
-493.00000000000011
10
-62.999999999999972
20
-493.00000000000011
10
-62.999999999999972
20
-480
0
LWPOLYLINE
5
422
100
AcDbEntity
8
0
100
AcDbPolyline
90
12
70
1
43
0.0
10
-216.50000000000006
20
-480
10
-216.50000000000006
20
-473.50000000000011
10
-203.49999999999994
20
-473.50000000000011
10
-203.49999999999994
20
-480
10
-197.00000000000003
20
-480
10
-197.00000000000003
20
-493.00000000000011
10
-203.49999999999994
20
-493.00000000000011
10
-203.49999999999994
20
-499.5
10
-216.50000000000006
20
-499.5
10
-216.50000000000006
20
-493.00000000000011
10
-222.99999999999997
20
-493.00000000000011
10
-222.99999999999997
20
-480
0
LWPOLYLINE
5
423
100
AcDbEntity
8
0
100
AcDbPolyline
90
12
70
1
43
0.0
10
-856.5
20
-160
10
-856.5
20
-153.50000000000009
10
-843.5
20
-153.50000000000009
10
-843.5
20
-160
10
-837
20
-160
10
-837
20
-173.00000000000011
10
-843.5
20
-173.00000000000011
10
-843.5
20
-179.50000000000003
10
-856.5
20
-179.50000000000003
10
-856.5
20
-173.00000000000011
10
-863
20
-173.00000000000011
10
-863
20
-160
0
LWPOLYLINE
5
424
100
AcDbEntity
8
0
100
AcDbPolyline
90
12
70
1
43
0.0
10
-216.50000000000006
20
-320
10
-216.50000000000006
20
-313.50000000000011
10
-203.49999999999994
20
-313.50000000000011
10
-203.49999999999994
20
-320
10
-197.00000000000003
20
-320
10
-197.00000000000003
20
-333.00000000000011
10
-203.49999999999994
20
-333.00000000000011
10
-203.49999999999994
20
-339.5
10
-216.50000000000006
20
-339.5
10
-216.50000000000006
20
-333.00000000000011
10
-222.99999999999997
20
-333.00000000000011
10
-222.99999999999997
20
-320
0
LWPOLYLINE
5
425
100
AcDbEntity
8
0
100
AcDbPolyline
90
12
70
1
43
0.0
10
-1176.5
20
-160
10
-1176.5
20
-153.50000000000009
10
-1163.5
20
-153.50000000000009
10
-1163.5
20
-160
10
-1157
20
-160
10
-1157
20
-173.00000000000011
10
-1163.5
20
-173.00000000000011
10
-1163.5
20
-179.50000000000003
10
-1176.5
20
-179.50000000000003
10
-1176.5
20
-173.00000000000011
10
-1183
20
-173.00000000000011
10
-1183
20
-160
0
LWPOLYLINE
5
426
100
AcDbEntity
8
0
100
AcDbPolyline
90
12
70
1
43
0.0
10
-856.5
20
-480
10
-856.5
20
-473.50000000000011
10
-843.5
20
-473.50000000000011
10
-843.5
20
-480
10
-837
20
-480
10
-837
20
-493.00000000000011
10
-843.5
20
-493.00000000000011
10
-843.5
20
-499.5
10
-856.5
20
-499.5
10
-856.5
20
-493.00000000000011
10
-863
20
-493.00000000000011
10
-863
20
-480
0
LWPOLYLINE
5
427
100
AcDbEntity
8
0
100
AcDbPolyline
90
12
70
1
43
0.0
10
-1176.5
20
-480
10
-1176.5
20
-473.50000000000011
10
-1163.5
20
-473.50000000000011
10
-1163.5
20
-480
10
-1157
20
-480
10
-1157
20
-493.00000000000011
10
-1163.5
20
-493.00000000000011
10
-1163.5
20
-499.5
10
-1176.5
20
-499.5
10
-1176.5
20
-493.00000000000011
10
-1183
20
-493.00000000000011
10
-1183
20
-480
0
LWPOLYLINE
5
428
100
AcDbEntity
8
0
100
AcDbPolyline
90
12
70
1
43
0.0
10
-376.50000000000006
20
-160
10
-376.50000000000006
20
-153.50000000000009
10
-363.49999999999994
20
-153.50000000000009
10
-363.49999999999994
20
-160
10
-357
20
-160
10
-357
20
-173.00000000000011
10
-363.49999999999994
20
-173.00000000000011
10
-363.49999999999994
20
-179.50000000000003
10
-376.50000000000006
20
-179.50000000000003
10
-376.50000000000006
20
-173.00000000000011
10
-383
20
-173.00000000000011
10
-383
20
-160
0
LWPOLYLINE
5
429
100
AcDbEntity
8
0
100
AcDbPolyline
90
12
70
1
43
0.0
10
-56.500000000000057
20
-640
10
-56.500000000000057
20
-633.50000000000011
10
-43.499999999999943
20
-633.50000000000011
10
-43.499999999999943
20
-640
10
-37.000000000000028
20
-640
10
-37.000000000000028
20
-653.00000000000011
10
-43.499999999999943
20
-653.00000000000011
10
-43.499999999999943
20
-659.5
10
-56.500000000000057
20
-659.5
10
-56.500000000000057
20
-653.00000000000011
10
-62.999999999999972
20
-653.00000000000011
10
-62.999999999999972
20
-640
0
LWPOLYLINE
5
430
100
AcDbEntity
8
0
100
AcDbPolyline
90
12
70
1
43
0.0
10
-536.5
20
-640
10
-536.5
20
-633.50000000000011
10
-523.5
20
-633.50000000000011
10
-523.5
20
-640
10
-517
20
-640
10
-517
20
-653.00000000000011
10
-523.5
20
-653.00000000000011
10
-523.5
20
-659.5
10
-536.5
20
-659.5
10
-536.5
20
-653.00000000000011
10
-543
20
-653.00000000000011
10
-543
20
-640
0
LWPOLYLINE
5
431
100
AcDbEntity
8
0
100
AcDbPolyline
90
12
70
1
43
0.0
10
-696.5
20
-480
10
-696.5
20
-473.50000000000011
10
-683.5
20
-473.50000000000011
10
-683.5
20
-480
10
-677
20
-480
10
-677
20
-493.00000000000011
10
-683.5
20
-493.00000000000011
10
-683.5
20
-499.5
10
-696.5
20
-499.5
10
-696.5
20
-493.00000000000011
10
-703
20
-493.00000000000011
10
-703
20
-480
0
LWPOLYLINE
5
432
100
AcDbEntity
8
0
100
AcDbPolyline
90
12
70
1
43
0.0
10
-216.50000000000006
20
-160
10
-216.50000000000006
20
-153.50000000000009
10
-203.49999999999994
20
-153.50000000000009
10
-203.49999999999994
20
-160
10
-197.00000000000003
20
-160
10
-197.00000000000003
20
-173.00000000000011
10
-203.49999999999994
20
-173.00000000000011
10
-203.49999999999994
20
-179.50000000000003
10
-216.50000000000006
20
-179.50000000000003
10
-216.50000000000006
20
-173.00000000000011
10
-222.99999999999997
20
-173.00000000000011
10
-222.99999999999997
20
-160
0
LWPOLYLINE
5
433
100
AcDbEntity
8
0
100
AcDbPolyline
90
12
70
1
43
0.0
10
-856.5
20
-320
10
-856.5
20
-313.50000000000011
10
-843.5
20
-313.50000000000011
10
-843.5
20
-320
10
-837
20
-320
10
-837
20
-333.00000000000011
10
-843.5
20
-333.00000000000011
10
-843.5
20
-339.5
10
-856.5
20
-339.5
10
-856.5
20
-333.00000000000011
10
-863
20
-333.00000000000011
10
-863
20
-320
0
LWPOLYLINE
5
434
100
AcDbEntity
8
0
100
AcDbPolyline
90
12
70
1
43
0.0
10
-1016.5
20
-480
10
-1016.5
20
-473.50000000000011
10
-1003.5
20
-473.50000000000011
10
-1003.5
20
-480
10
-997
20
-480
10
-997
20
-493.00000000000011
10
-1003.5
20
-493.00000000000011
10
-1003.5
20
-499.5
10
-1016.5
20
-499.5
10
-1016.5
20
-493.00000000000011
10
-1023
20
-493.00000000000011
10
-1023
20
-480
0
LWPOLYLINE
5
435
100
AcDbEntity
8
0
100
AcDbPolyline
90
12
70
1
43
0.0
10
-376.50000000000006
20
-480
10
-376.50000000000006
20
-473.50000000000011
10
-363.49999999999994
20
-473.50000000000011
10
-363.49999999999994
20
-480
10
-357
20
-480
10
-357
20
-493.00000000000011
10
-363.49999999999994
20
-493.00000000000011
10
-363.49999999999994
20
-499.5
10
-376.50000000000006
20
-499.5
10
-376.50000000000006
20
-493.00000000000011
10
-383
20
-493.00000000000011
10
-383
20
-480
0
LWPOLYLINE
5
436
100
AcDbEntity
8
0
100
AcDbPolyline
90
12
70
1
43
0.0
10
-56.500000000000057
20
-160
10
-56.500000000000057
20
-153.50000000000009
10
-43.499999999999943
20
-153.50000000000009
10
-43.499999999999943
20
-160
10
-37.000000000000028
20
-160
10
-37.000000000000028
20
-173.00000000000011
10
-43.499999999999943
20
-173.00000000000011
10
-43.499999999999943
20
-179.50000000000003
10
-56.500000000000057
20
-179.50000000000003
10
-56.500000000000057
20
-173.00000000000011
10
-62.999999999999972
20
-173.00000000000011
10
-62.999999999999972
20
-160
0
LWPOLYLINE
5
437
100
AcDbEntity
8
0
100
AcDbPolyline
90
244
70
1
43
0.0
10
-1077
20
0
10
-1077
20
-13.000000000000114
10
-1083.5
20
-13.000000000000114
10
-1083.5
20
-19.500000000000028
10
-1096.5
20
-19.500000000000028
10
-1096.5
20
-13.000000000000114
10
-1103
20
-13.000000000000114
10
-1103
20
0
10
-1157
20
0
10
-1157
20
-13.000000000000114
10
-1163.5
20
-13.000000000000114
10
-1163.5
20
-19.500000000000028
10
-1176.5
20
-19.500000000000028
10
-1176.5
20
-13.000000000000114
10
-1183
20
-13.000000000000114
10
-1183
20
0
10
-1220
20
0
10
-1220
20
-813.00000000000011
10
-1183
20
-813.00000000000011
10
-1183
20
-800
10
-1176.5
20
-800
10
-1176.5
20
-793.50000000000011
10
-1163.5
20
-793.50000000000011
10
-1163.5
20
-800
10
-1157
20
-800
10
-1157
20
-813.00000000000011
10
-1103
20
-813.00000000000011
10
-1103
20
-800
10
-1096.5
20
-800
10
-1096.5
20
-793.50000000000011
10
-1083.5
20
-793.50000000000011
10
-1083.5
20
-800
10
-1077
20
-800
10
-1077
20
-813.00000000000011
10
-1023
20
-813.00000000000011
10
-1023
20
-800
10
-1016.5
20
-800
10
-1016.5
20
-793.50000000000011
10
-1003.5
20
-793.50000000000011
10
-1003.5
20
-800
10
-997
20
-800
10
-997
20
-813.00000000000011
10
-943
20
-813.00000000000011
10
-943
20
-800
10
-936.5
20
-800
10
-936.5
20
-793.50000000000011
10
-923.5
20
-793.50000000000011
10
-923.5
20
-800
10
-917
20
-800
10
-917
20
-813.00000000000011
10
-863
20
-813.00000000000011
10
-863
20
-800
10
-856.5
20
-800
10
-856.5
20
-793.50000000000011
10
-843.5
20
-793.50000000000011
10
-843.5
20
-800
10
-837
20
-800
10
-837
20
-813.00000000000011
10
-783
20
-813.00000000000011
10
-783
20
-800
10
-776.5
20
-800
10
-776.5
20
-793.50000000000011
10
-763.5
20
-793.50000000000011
10
-763.5
20
-800
10
-757
20
-800
10
-757
20
-813.00000000000011
10
-703
20
-813.00000000000011
10
-703
20
-800
10
-696.5
20
-800
10
-696.5
20
-793.50000000000011
10
-683.5
20
-793.50000000000011
10
-683.5
20
-800
10
-677
20
-800
10
-677
20
-813.00000000000011
10
-623
20
-813.00000000000011
10
-623
20
-800
10
-616.5
20
-800
10
-616.5
20
-793.50000000000011
10
-603.5
20
-793.50000000000011
10
-603.5
20
-800
10
-597
20
-800
10
-597
20
-813.00000000000011
10
-543
20
-813.00000000000011
10
-543
20
-800
10
-536.5
20
-800
10
-536.5
20
-793.50000000000011
10
-523.5
20
-793.50000000000011
10
-523.5
20
-800
10
-517
20
-800
10
-517
20
-813.00000000000011
10
-463
20
-813.00000000000011
10
-463
20
-800
10
-456.5
20
-800
10
-456.5
20
-793.50000000000011
10
-443.5
20
-793.50000000000011
10
-443.5
20
-800
10
-437
20
-800
10
-437
20
-813.00000000000011
10
-383
20
-813.00000000000011
10
-383
20
-800
10
-376.50000000000006
20
-800
10
-376.50000000000006
20
-793.50000000000011
10
-363.49999999999994
20
-793.50000000000011
10
-363.49999999999994
20
-800
10
-357
20
-800
10
-357
20
-813.00000000000011
10
-303
20
-813.00000000000011
10
-303
20
-800
10
-296.5
20
-800
10
-296.5
20
-793.50000000000011
10
-283.5
20
-793.50000000000011
10
-283.5
20
-800
10
-277
20
-800
10
-277
20
-813.00000000000011
10
-222.99999999999997
20
-813.00000000000011
10
-222.99999999999997
20
-800
10
-216.50000000000006
20
-800
10
-216.50000000000006
20
-793.50000000000011
10
-203.49999999999994
20
-793.50000000000011
10
-203.49999999999994
20
-800
10
-197.00000000000003
20
-800
10
-197.00000000000003
20
-813.00000000000011
10
-142.99999999999997
20
-813.00000000000011
10
-142.99999999999997
20
-800
10
-136.5
20
-800
10
-136.5
20
-793.50000000000011
10
-123.5
20
-793.50000000000011
10
-123.5
20
-800
10
-117.00000000000003
20
-800
10
-117.00000000000003
20
-813.00000000000011
10
-62.999999999999972
20
-813.00000000000011
10
-62.999999999999972
20
-800
10
-56.500000000000057
20
-800
10
-56.500000000000057
20
-793.50000000000011
10
-43.499999999999943
20
-793.50000000000011
10
-43.499999999999943
20
-800
10
-37.000000000000028
20
-800
10
-37.000000000000028
20
-813.00000000000011
10
0
20
-813.00000000000011
10
0
20
0
10
-37.000000000000028
20
0
10
-37.000000000000028
20
-13.000000000000114
10
-43.499999999999943
20
-13.000000000000114
10
-43.499999999999943
20
-19.500000000000028
10
-56.500000000000057
20
-19.500000000000028
10
-56.500000000000057
20
-13.000000000000114
10
-62.999999999999972
20
-13.000000000000114
10
-62.999999999999972
20
0
10
-117.00000000000003
20
0
10
-117.00000000000003
20
-13.000000000000114
10
-123.5
20
-13.000000000000114
10
-123.5
20
-19.500000000000028
10
-136.5
20
-19.500000000000028
10
-136.5
20
-13.000000000000114
10
-142.99999999999997
20
-13.000000000000114
10
-142.99999999999997
20
0
10
-197.00000000000003
20
0
10
-197.00000000000003
20
-13.000000000000114
10
-203.49999999999994
20
-13.000000000000114
10
-203.49999999999994
20
-19.500000000000028
10
-216.50000000000006
20
-19.500000000000028
10
-216.50000000000006
20
-13.000000000000114
10
-222.99999999999997
20
-13.000000000000114
10
-222.99999999999997
20
0
10
-277
20
0
10
-277
20
-13.000000000000114
10
-283.5
20
-13.000000000000114
10
-283.5
20
-19.500000000000028
10
-296.5
20
-19.500000000000028
10
-296.5
20
-13.000000000000114
10
-303
20
-13.000000000000114
10
-303
20
0
10
-357
20
0
10
-357
20
-13.000000000000114
10
-363.49999999999994
20
-13.000000000000114
10
-363.49999999999994
20
-19.500000000000028
10
-376.50000000000006
20
-19.500000000000028
10
-376.50000000000006
20
-13.000000000000114
10
-383
20
-13.000000000000114
10
-383
20
0
10
-437
20
0
10
-437
20
-13.000000000000114
10
-443.5
20
-13.000000000000114
10
-443.5
20
-19.500000000000028
10
-456.5
20
-19.500000000000028
10
-456.5
20
-13.000000000000114
10
-463
20
-13.000000000000114
10
-463
20
0
10
-517
20
0
10
-517
20
-13.000000000000114
10
-523.5
20
-13.000000000000114
10
-523.5
20
-19.500000000000028
10
-536.5
20
-19.500000000000028
10
-536.5
20
-13.000000000000114
10
-543
20
-13.000000000000114
10
-543
20
0
10
-597
20
0
10
-597
20
-13.000000000000114
10
-603.5
20
-13.000000000000114
10
-603.5
20
-19.500000000000028
10
-616.5
20
-19.500000000000028
10
-616.5
20
-13.000000000000114
10
-623
20
-13.000000000000114
10
-623
20
0
10
-677
20
0
10
-677
20
-13.000000000000114
10
-683.5
20
-13.000000000000114
10
-683.5
20
-19.500000000000028
10
-696.5
20
-19.500000000000028
10
-696.5
20
-13.000000000000114
10
-703
20
-13.000000000000114
10
-703
20
0
10
-757
20
0
10
-757
20
-13.000000000000114
10
-763.5
20
-13.000000000000114
10
-763.5
20
-19.500000000000028
10
-776.5
20
-19.500000000000028
10
-776.5
20
-13.000000000000114
10
-783
20
-13.000000000000114
10
-783
20
0
10
-837
20
0
10
-837
20
-13.000000000000114
10
-843.5
20
-13.000000000000114
10
-843.5
20
-19.500000000000028
10
-856.5
20
-19.500000000000028
10
-856.5
20
-13.000000000000114
10
-863
20
-13.000000000000114
10
-863
20
0
10
-917
20
0
10
-917
20
-13.000000000000114
10
-923.5
20
-13.000000000000114
10
-923.5
20
-19.500000000000028
10
-936.5
20
-19.500000000000028
10
-936.5
20
-13.000000000000114
10
-943
20
-13.000000000000114
10
-943
20
0
10
-997
20
0
10
-997
20
-13.000000000000114
10
-1003.5
20
-13.000000000000114
10
-1003.5
20
-19.500000000000028
10
-1016.5
20
-19.500000000000028
10
-1016.5
20
-13.000000000000114
10
-1023
20
-13.000000000000114
10
-1023
20
0
0
LWPOLYLINE
5
438
100
AcDbEntity
8
0
100
AcDbPolyline
90
12
70
1
43
0.0
10
-1163.5
20
-73.500000000000085
10
-1163.5
20
-80
10
-1157
20
-80
10
-1157
20
-93.000000000000114
10
-1163.5
20
-93.000000000000114
10
-1163.5
20
-99.500000000000028
10
-1176.5
20
-99.500000000000028
10
-1176.5
20
-93.000000000000114
10
-1183
20
-93.000000000000114
10
-1183
20
-80
10
-1176.5
20
-80
10
-1176.5
20
-73.500000000000085
0
LWPOLYLINE
5
439
100
AcDbEntity
8
0
100
AcDbPolyline
90
12
70
1
43
0.0
10
-1003.5
20
-73.500000000000085
10
-1003.5
20
-80
10
-997
20
-80
10
-997
20
-93.000000000000114
10
-1003.5
20
-93.000000000000114
10
-1003.5
20
-99.500000000000028
10
-1016.5
20
-99.500000000000028
10
-1016.5
20
-93.000000000000114
10
-1023
20
-93.000000000000114
10
-1023
20
-80
10
-1016.5
20
-80
10
-1016.5
20
-73.500000000000085
0
ENDSEC
0
SECTION
2
OBJECTS
0
DICTIONARY
5
C
100
AcDbDictionary
3
ACAD_GROUP
350
D
3
ACAD_MLINESTYLE
350
17
0
DICTIONARY
5
D
100
AcDbDictionary
0
DICTIONARY
5
1A
330
C
100
AcDbDictionary
0
DICTIONARY
5
17
100
AcDbDictionary
0
ENDSEC
0
EOF
